<svg width="301" height="34" viewBox="0 0 301 34" fill="none" xmlns="http://www.w3.org/2000/svg">
<path d="M30.5764 30.6536H3.05768V27.5959H0V3.13482H3.05768V0.0771484H30.5764V3.13482H33.6341V12.3077H21.4036V6.19235H12.2305V24.5382H21.4036V18.423H33.6341V27.5959H30.5764V30.6536Z" fill="white"/>
<path d="M68.3131 30.6536H40.7944V27.5959H37.7367V3.13482H40.7944V0.0771484H68.3131V3.13482H71.3708V27.5959H68.3131V30.6536ZM59.1403 12.3077V6.19235H49.9672V24.5382H59.1403V12.3077Z" fill="white"/>
<path d="M102.992 30.6536H75.4731V0.0771484H102.992V3.13482H106.05V6.19235H109.107V24.5382H106.05V27.5959H102.992V30.6536ZM93.819 6.19235H87.7038V24.5382H93.819V21.4806H96.8767V9.25002H93.819V6.19235Z" fill="white"/>
<path d="M116.268 27.5959H113.21V3.13482H116.268V0.0771484H146.844V6.19235H125.441V12.3077H134.613V18.423H125.441V24.5382H146.844V30.6536H116.268V27.5959Z" fill="white"/>
<path d="M163.177 30.6536H150.946V0.0771484H181.523V3.13482H184.58V15.3654H181.523V18.423H163.177V30.6536ZM163.177 12.3077H172.35V6.19235H163.177V12.3077Z" fill="white"/>
<path d="M188.682 0.0771484H200.913V24.5382H222.316V30.6536H188.682V0.0771484Z" fill="white"/>
<path d="M238.65 30.6536H226.419V3.13482H229.477V0.0771484H256.995V3.13482H260.053V30.6536H247.823V18.423H238.65V30.6536ZM238.65 12.3077H247.823V6.19235H238.65V12.3077Z" fill="white"/>
<path d="M297.917 15.3647V12.2816H301V0H288.718V9.22388H285.635V12.2816H279.494V9.22388H276.437V0H264.155V12.2816H267.213V15.3647H270.296V18.4224H276.437V27.3914H288.718V24.1555V18.3714L294.859 18.3969V15.3647H297.917Z" fill="white"/>
<path d="M301 18.3711H294.859V27.3911H301V18.3711Z" fill="white"/>
<path d="M294.834 27.3916H288.718V33.507H294.834V27.3916Z" fill="white"/>
</svg>
