<svg width="553" height="62" viewBox="0 0 553 62" fill="none" xmlns="http://www.w3.org/2000/svg">
<path d="M56.1013 56.2418H5.61019V50.6316H0V5.75069H5.61019V0.140503H56.1013V5.75069H61.7115V22.581H39.271V11.3606H22.4405V45.0214H39.271V33.8013H61.7115V50.6316H56.1013V56.2418Z" fill="#C2E64A"/>
<path d="M125.34 56.2418H74.849V50.6316H69.2389V5.75069H74.849V0.140503H125.34V5.75069H130.95V50.6316H125.34V56.2418ZM108.51 22.581V11.3606H91.6793V45.0214H108.51V22.581Z" fill="#C2E64A"/>
<path d="M188.969 56.2418H138.477V0.140503H188.969V5.75069H194.579V11.3606H200.189V45.0214H194.579V50.6316H188.969V56.2418ZM172.138 11.3606H160.918V45.0214H172.138V39.4113H177.748V16.9708H172.138V11.3606Z" fill="#C2E64A"/>
<path d="M213.326 50.6316H207.716V5.75069H213.326V0.140503H269.428V11.3606H230.157V22.581H246.987V33.8013H230.157V45.0214H269.428V56.2418H213.326V50.6316Z" fill="#C2E64A"/>
<path d="M299.395 56.2418H276.954V0.140503H333.056V5.75069H338.666V28.1912H333.056V33.8013H299.395V56.2418ZM299.395 22.581H316.226V11.3606H299.395V22.581Z" fill="#C2E64A"/>
<path d="M346.192 0.140503H368.633V45.0214H407.904V56.2418H346.192V0.140503Z" fill="#C2E64A"/>
<path d="M437.872 56.2418H415.431V5.75069H421.041V0.140503H471.532V5.75069H477.142V56.2418H454.702V33.8013H437.872V56.2418ZM437.872 22.581H454.702V11.3606H437.872V22.581Z" fill="#C2E64A"/>
<path d="M546.615 28.191V22.5341H552.271V0H529.737V16.9239H524.08V22.5341H512.813V16.9239H507.203V0H484.669V22.5341H490.279V28.191H495.936V33.8012H507.203V50.2574H529.737V44.3202V33.7076L541.004 33.7544V28.191H546.615Z" fill="#C2E64A"/>
<path d="M552.271 33.7071H541.004V50.2569H552.271V33.7071Z" fill="#C2E64A"/>
<path d="M540.957 50.2575H529.737V61.4779H540.957V50.2575Z" fill="#C2E64A"/>
</svg>
