<svg width="113" height="34" viewBox="0 0 113 34" fill="none" xmlns="http://www.w3.org/2000/svg">
<g clip-path="url(#clip0_75_1121)">
<path d="M29.1511 13.2382V11.5503C29.1511 11.3637 29.0035 11.2162 28.817 11.2162H28.1921C28.0056 11.2162 27.858 11.0687 27.858 10.8821V10.0273C27.858 9.84076 27.6932 9.67154 27.5022 9.67154H26.8991C26.7126 9.67154 26.565 9.83642 26.565 10.0273V19.5861C26.565 19.7727 26.7126 19.9419 26.8991 19.9419H27.5022C27.6888 19.9419 27.858 20.0894 27.858 20.276V21.1308C27.858 21.3174 28.0056 21.4649 28.1921 21.4649H28.7953C28.9818 21.4649 29.1511 21.3174 29.1511 21.1308V18.4233C29.1511 17.7984 29.65 17.2778 30.2965 17.2778H31.902C32.5268 17.2778 33.0258 17.7984 33.0258 18.4233V20.3584C33.0258 20.9833 32.5485 21.4605 31.9237 21.4605H31.5071V21.8988C31.5071 22.5019 31.0081 23.0009 30.405 23.0009H25.3241C24.721 23.0009 24.222 22.5019 24.222 21.8988V21.4605H23.8054C23.1806 21.4605 22.6816 20.9833 22.6816 20.3584V10.8604C22.6816 10.2139 23.2023 9.67154 23.8705 9.67154H24.2263V9.31574C24.2263 8.66924 24.747 8.14856 25.3935 8.14856H30.2488C30.9344 8.14856 31.5201 8.71263 31.5201 9.41988V9.67154H31.5635C32.3966 9.67154 33.0431 10.3397 33.0431 11.1728V13.2338C33.0431 13.8587 32.5441 14.3576 31.9193 14.3576H30.3139C29.6674 14.3576 29.1684 13.8587 29.1684 13.2338L29.1511 13.2382Z" fill="white"/>
<path d="M44.1462 13.9064V20.6318C44.1462 21.0917 43.773 21.4649 43.3131 21.4649H42.6059V22.1721C42.6059 22.632 42.2327 23.0052 41.7728 23.0052H36.3794C36.0236 23.0052 35.7329 22.7145 35.7329 22.3587V21.4649H34.8564C34.4833 21.4649 34.1882 21.1741 34.1882 20.8183V13.7154C34.1882 13.3423 34.4789 13.0472 34.8564 13.0472H35.7329V12.1708C35.7329 11.7976 36.0236 11.5026 36.3794 11.5026H41.7728C42.2327 11.5026 42.6059 11.8757 42.6059 12.3573V13.0429H43.3131C43.773 13.0429 44.1462 13.4161 44.1462 13.8977V13.9064ZM40.4147 21.1568V14.5746C40.4147 14.4097 40.2671 14.2622 40.0806 14.2622H39.4774C39.3126 14.2622 39.165 14.1146 39.165 13.9497V13.3683C39.165 13.2034 39.0175 13.0559 38.8526 13.0559H38.2495C38.0629 13.0559 37.9154 13.2034 37.9154 13.3683V19.9506C37.9154 20.1371 38.0629 20.2847 38.2495 20.2847H38.8743C39.0392 20.2847 39.165 20.4105 39.165 20.5754V21.1568C39.165 21.3217 39.3126 21.4692 39.4991 21.4692H40.0806C40.2671 21.4692 40.4147 21.3217 40.4147 21.1568Z" fill="white"/>
<path d="M47.6836 11.5113H51.5366V8.99031C51.5366 8.51302 51.9098 8.15723 52.3697 8.15723H54.4307C54.8907 8.15723 55.2638 8.51302 55.2638 8.99031V22.1114C55.2638 22.6104 54.869 23.0052 54.37 23.0052H47.6836C47.2237 23.0052 46.8505 22.6321 46.8505 22.1721V21.4649H46.165C45.6877 21.4649 45.3102 21.0917 45.3102 20.6318V13.9064C45.3102 13.4291 45.6834 13.0516 46.165 13.0516H46.8505V12.366C46.8505 11.8887 47.2237 11.5113 47.6836 11.5113ZM51.541 21.1568V14.5746C51.541 14.4097 51.3935 14.2622 51.2069 14.2622H50.6038C50.4389 14.2622 50.2914 14.1146 50.2914 13.9498V13.3683C50.2914 13.2035 50.1438 13.0559 49.9789 13.0559H49.3758C49.1893 13.0559 49.0417 13.2035 49.0417 13.3683V19.9506C49.0417 20.1371 49.1893 20.2847 49.3758 20.2847H50.0006C50.1655 20.2847 50.2914 20.4105 50.2914 20.5754V21.1568C50.2914 21.3217 50.4389 21.4692 50.6255 21.4692H51.2069C51.3935 21.4692 51.541 21.3217 51.541 21.1568Z" fill="white"/>
<path d="M66.3882 13.6548V18.0284C66.3882 18.4667 66.0324 18.8181 65.6159 18.8181H60.4916C60.305 18.8181 60.1575 18.9657 60.1575 19.1305V19.9636C60.1575 20.1285 60.305 20.276 60.4699 20.276H61.1164C61.2813 20.276 61.4071 20.4019 61.4071 20.5667V21.1699C61.4071 21.3347 61.5546 21.4606 61.7195 21.4606H62.3443C62.5092 21.4606 62.6567 21.3347 62.6567 21.1699V20.276C62.6567 19.9029 62.9474 19.6078 63.3032 19.6078H65.72C66.0932 19.6078 66.3882 19.8985 66.3882 20.276V20.8575C66.3882 21.1916 66.1192 21.4606 65.7851 21.4606H64.8479V22.3978C64.8479 22.7319 64.5789 23.0009 64.2448 23.0009H58.5781C58.244 23.0009 57.975 22.7319 57.975 22.3978V21.4606H57.0377C56.7036 21.4606 56.4346 21.1916 56.4346 20.8575V13.6504C56.4346 13.3163 56.7036 13.0473 57.0377 13.0473H57.975V12.1101C57.975 11.776 58.244 11.507 58.5781 11.507H64.2448C64.5789 11.507 64.8479 11.776 64.8479 12.1101V13.0473H65.7851C66.1192 13.0473 66.3882 13.3163 66.3882 13.6504V13.6548ZM60.4959 16.0716H62.3486C62.5135 16.0716 62.661 15.9457 62.661 15.7592V14.5529C62.661 14.388 62.5135 14.2622 62.3486 14.2622H61.7021C61.5373 14.2622 61.4114 14.1147 61.4114 13.9498V13.3467C61.4114 13.1818 61.2856 13.056 61.1207 13.056H60.4742C60.3093 13.056 60.1618 13.1818 60.1618 13.3467V15.7635C60.1618 15.9501 60.3093 16.0759 60.4959 16.0759V16.0716Z" fill="white"/>
<path d="M75.136 23.0096H71.283V26.0729C71.283 26.5328 70.9272 26.906 70.4499 26.906H68.3889C67.9289 26.906 67.5558 26.5328 67.5558 26.0729V12.4095C67.5558 11.9105 67.9506 11.5156 68.4496 11.5156H75.136C75.5959 11.5156 75.9691 11.8888 75.9691 12.3704V13.056H76.6763C77.1363 13.056 77.5094 13.4291 77.5094 13.9107V20.6362C77.5094 21.0961 77.1363 21.4692 76.6763 21.4692H75.9691V22.1765C75.9691 22.6364 75.5959 23.0096 75.136 23.0096ZM71.283 13.364V19.9463C71.283 20.1328 71.4305 20.2804 71.6171 20.2804H72.2419C72.4068 20.2804 72.5326 20.4062 72.5326 20.5711V21.1525C72.5326 21.3174 72.6801 21.4649 72.8667 21.4649H73.4481C73.6347 21.4649 73.7822 21.3174 73.7822 21.1525V14.5703C73.7822 14.4054 73.6347 14.2579 73.4481 14.2579H72.845C72.6801 14.2579 72.5326 14.1103 72.5326 13.9455V13.364C72.5326 13.1991 72.3851 13.0516 72.2202 13.0516H71.6171C71.4305 13.0516 71.283 13.1991 71.283 13.364Z" fill="white"/>
<path d="M80.5075 8.15729H82.0912C82.2561 8.15729 82.4036 8.30482 82.4036 8.4697V22.4455C82.4036 22.758 82.152 23.0096 81.8395 23.0096H79.2362C78.9238 23.0096 78.6721 22.758 78.6721 22.4455V9.98834C78.6721 9.82346 78.8196 9.67593 78.9845 9.67593H80.0475C80.13 9.67593 80.2124 9.61519 80.2124 9.52841V8.44366C80.2124 8.27878 80.3383 8.15295 80.5031 8.15295L80.5075 8.15729Z" fill="white"/>
<path d="M93.5242 13.8022V22.1981C93.5242 22.6581 93.151 23.0312 92.7128 23.0312H84.4036C83.9437 23.0312 83.5706 22.6581 83.5706 22.1981V18.3451C83.5706 17.9503 83.9047 17.6162 84.2995 17.6162H85.1109V16.8265C85.1109 16.4099 85.445 16.0758 85.8398 16.0758H89.5453C89.6712 16.0758 89.797 15.9717 89.797 15.8242V14.5138C89.797 14.3663 89.6712 14.2621 89.5453 14.2621H88.8598C88.6949 14.2621 88.5474 14.1146 88.5474 13.9497V13.2815C88.5474 13.1557 88.4432 13.0516 88.3174 13.0516H87.5277C87.4019 13.0516 87.2977 13.1557 87.2977 13.2815V14.5095C87.2977 14.8653 87.0287 15.1343 86.6729 15.1343H84.1954C83.8396 15.1343 83.5706 14.8653 83.5706 14.5095V13.8022C83.5706 13.3857 83.9047 13.0516 84.3212 13.0516H85.1109V12.2619C85.1109 11.8453 85.445 11.5112 85.8615 11.5112H91.2375C91.6541 11.5112 91.9882 11.8453 91.9882 12.2619V13.0516H92.7779C93.1944 13.0516 93.5285 13.3857 93.5285 13.8022H93.5242ZM89.797 21.1741V19.0914C89.797 18.9439 89.6712 18.8224 89.5063 18.8224H87.5884C87.4236 18.8224 87.2977 18.9482 87.2977 19.0914V19.9679C87.2977 20.1328 87.4453 20.2803 87.6101 20.2803H88.1525C88.3825 20.2803 88.5474 20.4452 88.5474 20.6535V21.1741C88.5474 21.339 88.6949 21.4648 88.8598 21.4648H89.4846C89.6495 21.4648 89.797 21.339 89.797 21.1741Z" fill="white"/>
<path d="M104.649 12.1969V24.7365C104.649 25.0923 104.358 25.4047 103.981 25.4047H103.104V26.2378C103.104 26.6109 102.814 26.906 102.436 26.906H96.8951C96.522 26.906 96.2269 26.6153 96.2269 26.2378V25.4047H95.0814C94.8515 25.4047 94.6866 25.2181 94.6866 25.0099V24.1985C94.6866 23.9902 94.8515 23.8253 95.0814 23.8253H99.351C99.5159 23.8253 99.6634 23.9511 99.6634 24.1377V25.0532C99.6634 25.2398 99.8109 25.3873 99.9975 25.3873H100.579C100.766 25.3873 100.913 25.2398 100.913 25.0532V23.2396C100.913 23.1137 100.809 23.0096 100.683 23.0096L96.8908 22.9879C96.5176 22.9879 96.2226 22.6972 96.2226 22.3197V21.4432H95.3461C94.973 21.4432 94.6779 21.1525 94.6779 20.775V12.0884C94.6779 11.7543 94.9296 11.507 95.242 11.507H97.8454C98.1578 11.507 98.4094 11.7586 98.4094 12.0884V19.9419C98.4094 20.1285 98.5743 20.276 98.7435 20.276H99.3467C99.5115 20.276 99.6591 20.4236 99.6591 20.5884V21.1525C99.6591 21.3174 99.8066 21.4649 99.9932 21.4649H100.575C100.761 21.4649 100.909 21.3174 100.909 21.1525V12.0927C100.909 11.7586 101.16 11.5113 101.473 11.5113H103.972C104.345 11.5113 104.64 11.8237 104.64 12.1969H104.649Z" fill="white"/>
<path d="M5.54659 22.183H8.19046C8.49412 22.183 8.73705 22.349 8.73705 22.5555V24.345C8.73705 24.5515 8.49007 24.7175 8.19046 24.7175H5.54659C5.24293 24.7175 5 24.5515 5 24.345V22.5555C5 22.349 5.24698 22.183 5.54659 22.183Z" fill="white"/>
<path d="M8.13744 19.6525H10.7813C11.085 19.6525 11.3279 19.8185 11.3279 20.025V21.8145C11.3279 22.021 11.0809 22.187 10.7813 22.187H8.13744C7.83378 22.187 7.59085 22.021 7.59085 21.8145V20.025C7.59085 19.8185 7.83783 19.6525 8.13744 19.6525Z" fill="white"/>
<path d="M10.6143 17.1221H13.2581C13.5618 17.1221 13.8047 17.2881 13.8047 17.4946V19.2841C13.8047 19.4906 13.5578 19.6566 13.2581 19.6566H10.6143C10.3106 19.6566 10.0677 19.4906 10.0677 19.2841V17.4946C10.0677 17.2881 10.3147 17.1221 10.6143 17.1221Z" fill="white"/>
<path d="M12.7139 14.5916H15.3294C15.629 14.5916 15.8719 14.7576 15.8719 14.964V16.7536C15.8719 16.9601 15.629 17.1261 15.3294 17.1261H12.7139C12.4143 17.1261 12.1713 16.9601 12.1713 16.7536V14.964C12.1713 14.7576 12.4143 14.5916 12.7139 14.5916Z" fill="white"/>
<path d="M10.6143 12.061H13.2581C13.5618 12.061 13.8047 12.227 13.8047 12.4335V14.2231C13.8047 14.4296 13.5578 14.5956 13.2581 14.5956H10.6143C10.3106 14.5956 10.0677 14.4296 10.0677 14.2231V12.4335C10.0677 12.227 10.3147 12.061 10.6143 12.061Z" fill="white"/>
<path d="M5.54659 7H8.19046C8.49412 7 8.73705 7.166 8.73705 7.37249V9.16206C8.73705 9.36855 8.49007 9.53455 8.19046 9.53455H5.54659C5.24293 9.53455 5 9.36855 5 9.16206V7.37249C5 7.166 5.24698 7 5.54659 7Z" fill="white"/>
<path d="M8.13744 9.53052H10.7813C11.085 9.53052 11.3279 9.69652 11.3279 9.90301V11.6926C11.3279 11.8991 11.0809 12.0651 10.7813 12.0651H8.13744C7.83378 12.0651 7.59085 11.8991 7.59085 11.6926V9.90301C7.59085 9.69652 7.83783 9.53052 8.13744 9.53052Z" fill="white"/>
<path d="M2.54659 17.1221H5.19046C5.49412 17.1221 5.73705 17.2881 5.73705 17.4946V19.2841C5.73705 19.4906 5.49007 19.6566 5.19046 19.6566H2.54659C2.24293 19.6566 2 19.4906 2 19.2841V17.4946C2 17.2881 2.24698 17.1221 2.54659 17.1221Z" fill="white"/>
<path d="M4.64606 14.5916H7.26159C7.5612 14.5916 7.80413 14.7576 7.80413 14.964V16.7536C7.80413 16.9601 7.5612 17.1261 7.26159 17.1261H4.64606C4.34644 17.1261 4.10352 16.9601 4.10352 16.7536V14.964C4.10352 14.7576 4.34644 14.5916 4.64606 14.5916Z" fill="white"/>
<path d="M2.54659 12.061H5.19046C5.49412 12.061 5.73705 12.227 5.73705 12.4335V14.2231C5.73705 14.4296 5.49007 14.5956 5.19046 14.5956H2.54659C2.24293 14.5956 2 14.4296 2 14.2231V12.4335C2 12.227 2.24698 12.061 2.54659 12.061Z" fill="white"/>
</g>
<defs>
<clipPath id="clip0_75_1121">
<rect width="113" height="33.2366" fill="white"/>
</clipPath>
</defs>
</svg>
