<svg width="12" height="12" viewBox="0 0 12 12" fill="none" xmlns="http://www.w3.org/2000/svg">
<path fill-rule="evenodd" clip-rule="evenodd" d="M11.7968 1.61174L10.3883 0.20316C10.1174 -0.0677201 9.73815 -0.0677201 9.46727 0.20316L6 3.67043L2.53273 0.20316C2.26185 -0.0677201 1.82844 -0.0677201 1.61174 0.20316L0.20316 1.61174C-0.0677201 1.82844 -0.0677201 2.26185 0.20316 2.53273L3.67043 6L0.20316 9.46727C-0.0677201 9.73815 -0.0677201 10.1174 0.20316 10.3883L1.61174 11.7968C1.82844 12.0677 2.26185 12.0677 2.53273 11.7968L6 8.32957L9.46727 11.7968C9.73815 12.0677 10.1174 12.0677 10.3883 11.7968L11.7968 10.3883C12.0677 10.1174 12.0677 9.73815 11.7968 9.46727L8.32957 6L11.7968 2.53273C12.0677 2.26185 12.0677 1.82844 11.7968 1.61174Z" fill="#C5C5C5"/>
</svg>
