<svg width="115" height="67" viewBox="0 0 115 67" fill="none" xmlns="http://www.w3.org/2000/svg">
<path d="M38.4978 25.1051C37.5698 22.1039 34.7191 19.9303 31.3417 19.9303C27.9642 19.9303 25.1386 22.1206 24.1939 25.0884L38.4978 25.1051ZM23.8511 27.2118C23.8511 31.233 27.2035 34.4934 31.3417 34.4934C33.5487 34.4934 35.5467 33.557 36.9178 32.069H39.9775C38.2554 34.9699 35.0284 36.9178 31.3333 36.9178C25.8157 36.9178 21.3515 32.5706 21.3515 27.2118C21.3515 21.8531 25.8157 17.5059 31.3333 17.5059C36.8509 17.5059 41.3068 21.8531 41.3068 27.2118" fill="white"/>
<path d="M17.1547 25.1051C16.2267 22.1039 13.3676 19.9303 9.99019 19.9303C6.61275 19.9303 3.79543 22.1206 2.84239 25.0884L17.1547 25.1051ZM2.49964 27.2118C2.49964 31.233 5.86036 34.4934 9.98183 34.4934C12.1972 34.4934 14.1953 33.557 15.5579 32.069H18.6261C16.8955 34.9699 13.6686 36.9178 9.98183 36.9178C4.4726 36.9178 0 32.5706 0 27.2118C0 21.8531 4.46424 17.5059 9.98183 17.5059C15.4994 17.5059 19.9637 21.8531 19.9637 27.2118" fill="white"/>
<path d="M92.1187 25.1051C91.1824 22.1039 88.3316 19.9303 84.9542 19.9303C81.5767 19.9303 78.751 22.1206 77.8064 25.0884L92.1187 25.1051ZM77.472 27.2118C77.472 31.233 80.816 34.4934 84.9542 34.4934C87.1695 34.4934 89.1592 33.557 90.5303 32.069H93.59C91.8679 34.9699 88.6409 36.9178 84.9542 36.9178C79.4366 36.9178 74.9723 32.5706 74.9723 27.2118C74.9723 21.8531 79.4366 17.5059 84.9542 17.5059C90.4717 17.5059 94.936 21.8531 94.936 27.2118" fill="white"/>
<path d="M66.1025 32.0605C66.1025 33.4399 67.2311 34.5601 68.6188 34.5601C71.4779 34.5601 73.8773 33.7827 74.5962 32.7209L76.0342 34.3511C74.6046 35.8643 71.8291 36.8926 68.6188 36.8926C65.86 36.8926 63.6196 34.7357 63.6196 32.0689V19.9719L63.6112 19.9636H56.5554V17.489H63.6112V7.7998H66.1025V17.489H69.9481V19.9636H66.1025V32.0689" fill="white"/>
<path d="M96.332 27.1953C96.332 21.8281 100.796 17.481 106.305 17.481C110.001 17.481 113.236 19.4372 115 22.3883H111.932C110.519 20.8584 108.529 19.9137 106.305 19.9137C102.176 19.9137 98.8233 23.1741 98.8233 27.1953V27.212C98.8233 31.2331 102.176 34.4935 106.314 34.4935C108.529 34.4935 110.511 33.5572 111.89 32.0691H114.958C113.228 34.9701 110.009 36.9179 106.314 36.9179C100.796 36.9179 96.332 32.5707 96.332 27.2036" fill="white"/>
<path d="M47.05 48.4796C48.1702 47.5767 49.3992 46.6738 50.5946 45.7877C55.1926 42.4102 59.9495 38.9325 59.9495 34.5769C59.9495 30.2214 55.2094 26.7603 50.6281 23.3996C46.4564 20.3399 42.1427 17.1798 42.1427 13.8943C42.1427 10.6088 46.4397 7.47383 50.5946 4.42244C52.5592 2.98452 54.5406 1.52988 56.1791 0H52.9271C51.7901 0.911239 50.5528 1.81412 49.3156 2.717C44.7343 6.08607 39.9942 9.56383 39.9942 13.8943C39.9942 18.2248 44.751 21.7276 49.349 25.105C53.4956 28.1564 57.801 31.3165 57.801 34.5769C57.801 37.8373 53.4872 41.0225 49.3156 44.0822C47.3677 45.5034 45.4031 46.9581 43.7729 48.4796" fill="white"/>
<path d="M18.6678 52.3584H20.8748V61.6213H24.0851V63.6778H18.6678V52.3668V52.3584Z" fill="white"/>
<path d="M36.4161 54.3481L34.8778 55.786C33.8245 54.6992 32.6457 54.1642 31.3332 54.1642C30.2297 54.1642 29.2934 54.532 28.5326 55.276C27.7718 56.0117 27.3956 56.923 27.3956 58.0097C27.3956 58.7621 27.5628 59.431 27.8972 60.0162C28.2316 60.6014 28.7082 61.0611 29.3184 61.3955C29.9287 61.7299 30.6142 61.8972 31.3666 61.8972C32.0103 61.8972 32.5955 61.7801 33.1222 61.546C33.6489 61.312 34.2341 60.8856 34.8695 60.2753L36.3659 61.7968C35.5132 62.6161 34.7023 63.1762 33.9415 63.4939C33.1808 63.8116 32.3113 63.9704 31.3332 63.9704C29.5358 63.9704 28.0561 63.4103 26.9108 62.2984C25.7654 61.1866 25.1886 59.757 25.1886 58.0097C25.1886 56.8812 25.4478 55.878 25.9744 55.0002C26.4928 54.1224 27.2452 53.4201 28.2149 52.8851C29.193 52.35 30.238 52.0825 31.3583 52.0825C32.3113 52.0825 33.2309 52.2832 34.1171 52.6761C35.0032 53.069 35.764 53.6291 36.4077 54.3564L36.4161 54.3481Z" fill="white"/>
<path d="M42.243 52.3584H49.2571L45.1356 61.6045H48.9895V63.6778H41.9086L46.0134 54.4902H42.243V52.3584Z" fill="white"/>
<path d="M57.0067 55.3013H59.1552V63.6696H57.0067V62.7835C56.5887 63.1764 56.1706 63.4523 55.7443 63.6278C55.3263 63.8034 54.8665 63.887 54.3733 63.887C53.2697 63.887 52.3083 63.469 51.5058 62.633C50.6948 61.797 50.2936 60.752 50.2936 59.5064C50.2936 58.2607 50.6865 57.1572 51.464 56.3296C52.2498 55.5019 53.1945 55.0923 54.3147 55.0923C54.8247 55.0923 55.3096 55.1842 55.761 55.3765C56.2125 55.5688 56.6305 55.853 57.015 56.2292V55.3096L57.0067 55.3013ZM54.7494 57.0234C54.0806 57.0234 53.5289 57.2492 53.0942 57.709C52.6511 58.1688 52.4337 58.754 52.4337 59.4729C52.4337 60.1919 52.6594 60.7938 53.1025 61.2536C53.554 61.7218 54.0974 61.9558 54.7578 61.9558C55.4183 61.9558 55.9951 61.7301 56.4382 61.2703C56.8813 60.8105 57.107 60.2086 57.107 59.4646C57.107 58.7205 56.8813 58.1437 56.4382 57.6922C55.9951 57.2408 55.435 57.0151 54.7494 57.0151V57.0234Z" fill="white"/>
<path d="M67.6656 55.3017H69.8058V62.4746C69.8058 63.8874 69.5132 64.9324 68.928 65.6012C68.1421 66.5041 66.9634 66.9555 65.3917 66.9555C64.5557 66.9555 63.8451 66.8552 63.2766 66.6462C62.7081 66.4372 62.2233 66.1363 61.8303 65.7433C61.4374 65.3421 61.1448 64.8655 60.9525 64.2971H63.3268C63.5358 64.5311 63.8033 64.7151 64.1377 64.8321C64.4721 64.9491 64.8567 65.016 65.3081 65.016C65.8849 65.016 66.3531 64.9324 66.7042 64.7569C67.0553 64.5813 67.3061 64.3556 67.4482 64.0797C67.5904 63.8038 67.6656 63.3273 67.6656 62.6501C67.2894 63.018 66.8881 63.2855 66.4785 63.4443C66.0605 63.6032 65.5923 63.6868 65.0656 63.6868C63.912 63.6868 62.9422 63.2855 62.148 62.4746C61.3538 61.6637 60.9609 60.6354 60.9609 59.3981C60.9609 58.0689 61.3789 57.0072 62.2233 56.1962C62.984 55.4689 63.8953 55.1011 64.9486 55.1011C65.4419 55.1011 65.91 55.193 66.3447 55.3686C66.7794 55.5442 67.2225 55.8368 67.6656 56.238V55.3184V55.3017ZM65.4335 57.049C64.7563 57.049 64.1962 57.2747 63.7531 57.7178C63.3101 58.1608 63.0927 58.721 63.0927 59.3898C63.0927 60.0586 63.3184 60.6605 63.7699 61.1036C64.2213 61.5466 64.7898 61.7723 65.4753 61.7723C66.1608 61.7723 66.6959 61.555 67.1222 61.1203C67.5569 60.6855 67.7743 60.1171 67.7743 59.4065C67.7743 58.6959 67.5569 58.1441 67.1222 57.7094C66.6875 57.2747 66.1274 57.0573 65.4335 57.0573V57.049Z" fill="white"/>
<path d="M71.4779 55.3014H73.3171V56.3547C73.5178 55.9367 73.7853 55.6274 74.1113 55.41C74.4457 55.1927 74.8052 55.084 75.1981 55.084C75.474 55.084 75.7666 55.1592 76.0759 55.3014L75.4071 57.1071C75.1563 56.9817 74.9473 56.9232 74.7885 56.9232C74.4541 56.9232 74.1782 57.1238 73.9525 57.5251C73.7268 57.9264 73.6097 58.7122 73.6097 59.8826V60.2923V63.6781H71.4779V55.3097V55.3014Z" fill="white"/>
<path d="M85.7232 60.0916H78.8178C78.9182 60.6851 79.1857 61.1616 79.6204 61.5128C80.0551 61.8639 80.6069 62.0394 81.2757 62.0394C82.0782 62.0394 82.7721 61.7636 83.349 61.2202L85.1631 62.0478C84.7116 62.6748 84.1682 63.1346 83.5412 63.4356C82.9142 63.7365 82.1618 63.887 81.2924 63.887C79.9464 63.887 78.8513 63.4774 78.0069 62.6414C77.1626 61.8137 76.7362 60.7771 76.7362 59.5314C76.7362 58.2858 77.1542 57.1906 77.9985 56.3546C78.8429 55.5103 79.8963 55.0923 81.167 55.0923C82.5129 55.0923 83.6165 55.5103 84.4608 56.3546C85.3052 57.199 85.7315 58.3109 85.7315 59.6986V60.0999L85.7232 60.0916ZM83.5747 58.4363C83.4326 57.9681 83.1567 57.5919 82.7303 57.2993C82.3123 57.0067 81.8274 56.8646 81.2757 56.8646C80.6738 56.8646 80.1471 57.0318 79.6956 57.3578C79.4114 57.5668 79.1522 57.9263 78.9098 58.4446H83.5747V58.4363Z" fill="white"/>
<path d="M89.6024 52.0747V56.2296C89.9869 55.8534 90.4133 55.5692 90.8647 55.3769C91.3162 55.1846 91.8011 55.0927 92.311 55.0927C93.4313 55.0927 94.3759 55.5023 95.1618 56.3299C95.9476 57.1576 96.3322 58.2109 96.3322 59.5067C96.3322 60.8025 95.9309 61.7974 95.12 62.6334C94.3091 63.4694 93.356 63.8874 92.2441 63.8874C91.7509 63.8874 91.2911 63.8038 90.8647 63.6282C90.4384 63.4526 90.0204 63.1768 89.594 62.7839V63.67H87.4622V52.0747H89.594H89.6024ZM91.8596 57.0238C91.1824 57.0238 90.6223 57.2495 90.1708 57.701C89.7278 58.1524 89.5021 58.746 89.5021 59.4733C89.5021 60.2006 89.7278 60.8193 90.1708 61.2791C90.6139 61.7389 91.1824 61.9646 91.8596 61.9646C92.5367 61.9646 93.0718 61.7305 93.5148 61.2623C93.9663 60.7942 94.192 60.2006 94.192 59.4817C94.192 58.7627 93.9747 58.1775 93.5316 57.7177C93.0885 57.2579 92.5367 57.0322 91.8596 57.0322V57.0238Z" fill="white"/>
</svg>
