<svg width="39" height="35" viewBox="0 0 39 35" fill="none" xmlns="http://www.w3.org/2000/svg">
<path fill-rule="evenodd" clip-rule="evenodd" d="M4.11896 26.3615H6.17844V32.3268H4.11896V26.3615ZM2.05948 26.3615V32.3268H0V26.3615H2.05948ZM2.05948 12.3488H0V10.2893H2.05948V12.3488ZM2.05948 10.2893V8.2298H6.1622V10.2893H2.05948ZM6.1622 8.2298V6.17032H10.2649V8.2298H6.1622ZM10.2649 6.17032V4.11084H14.3676V6.17032H10.2649ZM14.3676 4.11084V2.05136H18.4704V0H20.5298V2.05136H24.6326V4.11084H20.5298V2.05948H18.4704V4.11084H14.3676ZM24.6326 4.11084H28.7351V6.17032H24.6324L24.6326 4.11084ZM28.7351 6.17032H32.8378V8.2298H28.7351V6.17032ZM32.8378 8.2298H36.9405V10.2893H32.8378V8.2298ZM36.9405 10.2893H39V12.3488H36.9405V10.2893ZM36.9405 12.3488V14.4082H32.8378V12.3488H36.9405ZM32.8378 14.4082V16.4677H32.0781V25.3448H30.0267V27.3913H28.0242V29.4508H23.9052V27.3913H27.9673V25.3318H30.0186V16.4676H28.7351V14.4082L32.8378 14.4082ZM28.7351 16.4676L28.7351 18.5272H24.6324V16.4677L28.7351 16.4676ZM24.6324 18.5272V20.5867H20.5296V18.5272H24.6324ZM20.5296 20.5867V22.6462H18.4702V20.5867H20.5296ZM18.4702 20.5867H14.3674V18.5272H18.4702V20.5867ZM14.3674 18.5272H10.2647V16.4677H14.3674V18.5272ZM10.2647 16.4677H9.24312V25.3319H11.2945V27.3914H15.3565V29.4509H11.2375V27.3914H9.23499V25.3449H7.18363V16.4678H6.16204V14.4083H10.2648L10.2647 16.4677ZM6.16204 14.4083L4.1188 14.4082L4.11896 26.3615H2.05948V12.3488L6.16204 12.3489V14.4083ZM2.05115 32.3498H4.11063V34.4093H2.05115V32.3498ZM15.3547 29.4542H23.9032V31.5137H15.3547V29.4542Z" fill="#C2E64A"/>
</svg>
