<svg width="32" height="33" viewBox="0 0 32 33" fill="none" xmlns="http://www.w3.org/2000/svg">
<g clip-path="url(#clip0_97_7)">
<path d="M14.2222 3.90887H10.6644V7.46668H14.2222V3.90887Z" fill="#C2E64A"/>
<path d="M10.6689 0.353333H3.55554V3.91114H10.6689V0.353333Z" fill="#C2E64A"/>
<path d="M17.7778 7.46442H14.22V11.0222H17.7778V7.46442Z" fill="#C2E64A"/>
<path d="M21.3356 3.90887H17.7778V7.46668H21.3356V3.90887Z" fill="#C2E64A"/>
<path d="M28.4444 0.353333H21.3311V3.91114H28.4444V0.353333Z" fill="#C2E64A"/>
<path d="M24.8889 11.02H21.3311V14.5778H24.8889V11.02Z" fill="#C2E64A"/>
<path d="M3.55781 3.91113H0V18.1334H3.55781V3.91113Z" fill="#C2E64A"/>
<path d="M10.6667 21.6889H7.10886V25.2467H10.6667V21.6889Z" fill="#C2E64A"/>
<path d="M7.11335 18.1334H3.55554V21.6912H7.11335V18.1334Z" fill="#C2E64A"/>
<path d="M14.2245 25.2444H10.6667V28.8023H14.2245V25.2444Z" fill="#C2E64A"/>
<path d="M17.7778 28.8H14.22V32.3578H17.7778V28.8Z" fill="#C2E64A"/>
<path d="M31.9977 3.91113H28.4399V18.1334H31.9977V3.91113Z" fill="#C2E64A"/>
<path d="M24.8912 21.6889H21.3333V25.2467H24.8912V21.6889Z" fill="#C2E64A"/>
<path d="M28.4444 18.1311H24.8866V21.6889H28.4444V18.1311Z" fill="#C2E64A"/>
<path d="M21.3333 25.2444H17.7755V28.8023H21.3333V25.2444Z" fill="#C2E64A"/>
</g>
<defs>
<clipPath id="clip0_97_7">
<rect width="32" height="32.7111" fill="white"/>
</clipPath>
</defs>
</svg>
