<svg width="27" height="43" viewBox="0 0 27 43" fill="none" xmlns="http://www.w3.org/2000/svg">
<path d="M1.32092 36.6924H7.71028C8.44413 36.6924 9.03121 37.0936 9.03121 37.5926V41.9174C9.03121 42.4164 8.43434 42.8176 7.71028 42.8176H1.32092C0.587076 42.8176 0 42.4164 0 41.9174L0 37.5926C0 37.0936 0.596861 36.6924 1.32092 36.6924Z" fill="white"/>
<path d="M7.58212 30.5771H13.9715C14.7053 30.5771 15.2924 30.9783 15.2924 31.4773V35.8021C15.2924 36.3012 14.6955 36.7023 13.9715 36.7023H7.58212C6.84828 36.7023 6.2612 36.3012 6.2612 35.8021V31.4773C6.2612 30.9783 6.85806 30.5771 7.58212 30.5771Z" fill="white"/>
<path d="M13.5678 24.4619H19.9572C20.691 24.4619 21.2781 24.8631 21.2781 25.3621V29.6869C21.2781 30.1859 20.6812 30.5871 19.9572 30.5871H13.5678C12.834 30.5871 12.2469 30.1859 12.2469 29.6869V25.3621C12.2469 24.8631 12.8437 24.4619 13.5678 24.4619Z" fill="white"/>
<path d="M18.6419 18.3467H24.9627C25.6868 18.3467 26.2739 18.7478 26.2739 19.2469V23.5717C26.2739 24.0707 25.6868 24.4719 24.9627 24.4719H18.6419C17.9178 24.4719 17.3307 24.0707 17.3307 23.5717V19.2469C17.3307 18.7478 17.9178 18.3467 18.6419 18.3467Z" fill="white"/>
<path d="M13.5678 12.2305H19.9572C20.691 12.2305 21.2781 12.6316 21.2781 13.1307V17.4555C21.2781 17.9545 20.6812 18.3556 19.9572 18.3556H13.5678C12.834 18.3556 12.2469 17.9545 12.2469 17.4555V13.1307C12.2469 12.6316 12.8437 12.2305 13.5678 12.2305Z" fill="white"/>
<path d="M1.32092 0H7.71028C8.44413 0 9.03121 0.401169 9.03121 0.900185V5.22499C9.03121 5.724 8.43434 6.12517 7.71028 6.12517H1.32092C0.587076 6.12517 0 5.724 0 5.22499L0 0.900185C0 0.401169 0.596861 0 1.32092 0Z" fill="white"/>
<path d="M7.58212 6.11523H13.9715C14.7053 6.11523 15.2924 6.5164 15.2924 7.01542V11.3402C15.2924 11.8392 14.6955 12.2404 13.9715 12.2404H7.58212C6.84828 12.2404 6.2612 11.8392 6.2612 11.3402V7.01542C6.2612 6.5164 6.85806 6.11523 7.58212 6.11523Z" fill="white"/>
</svg>
