<svg width="35" height="35" viewBox="0 0 35 35" fill="none" xmlns="http://www.w3.org/2000/svg">
<path d="M17.1098 0H17.0321C7.62553 0 0 7.62777 0 17.0371V17.1149C0 26.5242 7.62553 34.152 17.0321 34.152H17.1098C26.5164 34.152 34.1419 26.5242 34.1419 17.1149V17.0371C34.1419 7.62777 26.5164 0 17.1098 0Z" fill="#7D3FE7"/>
<path d="M22.3538 6.94824H11.7893C8.87071 6.94824 6.49634 9.32331 6.49634 12.2428V21.9106C6.49634 24.8301 8.87071 27.2052 11.7893 27.2052H22.3538C25.2724 27.2052 27.6468 24.8301 27.6468 21.9106V12.2428C27.6468 9.32331 25.2724 6.94824 22.3538 6.94824ZM8.36354 12.2428C8.36354 10.3535 9.9006 8.81599 11.7893 8.81599H22.3538C24.2425 8.81599 25.7796 10.3535 25.7796 12.2428V21.9106C25.7796 23.7999 24.2425 25.3374 22.3538 25.3374H11.7893C9.9006 25.3374 8.36354 23.7999 8.36354 21.9106V12.2428Z" fill="white"/>
<path d="M17.0716 22.0005C19.7857 22.0005 21.995 19.7918 21.995 17.0757C21.995 14.3596 19.7869 12.1509 17.0716 12.1509C14.3563 12.1509 12.1482 14.3596 12.1482 17.0757C12.1482 19.7918 14.3563 22.0005 17.0716 22.0005ZM17.0716 14.0198C18.757 14.0198 20.1278 15.391 20.1278 17.0769C20.1278 18.7628 18.757 20.134 17.0716 20.134C15.3862 20.134 14.0154 18.7628 14.0154 17.0769C14.0154 15.391 15.3862 14.0198 17.0716 14.0198Z" fill="white"/>
<path d="M22.4507 12.9463C23.1815 12.9463 23.7772 12.3517 23.7772 11.6194C23.7772 10.8871 23.1827 10.2925 22.4507 10.2925C21.7186 10.2925 21.1241 10.8871 21.1241 11.6194C21.1241 12.3517 21.7186 12.9463 22.4507 12.9463Z" fill="white"/>
</svg>
