<svg width="31" height="31" viewBox="0 0 31 31" fill="none" xmlns="http://www.w3.org/2000/svg">
<path fill-rule="evenodd" clip-rule="evenodd" d="M28.1822 2.81782H2.81778V0H28.1822V2.81782ZM28.1822 22.5452V2.81782H31V22.5452H28.1822ZM14.0904 25.3644V22.5452H28.1822V25.3644H14.0904ZM11.2726 28.1822V25.3644H14.0904V28.1822H11.2726ZM8.45477 28.1822H11.2726V31H8.45477V28.1822ZM5.63563 25.3644H8.45477V28.1822H5.63563V25.3644ZM2.81782 22.5452H5.63563V25.3644H2.81782V22.5452ZM2.81782 22.5452L2.81778 2.81782H0V22.5452H2.81782ZM5.63563 11.2726V14.0904H8.45477V11.2726H5.63563ZM14.0904 14.0904V11.2726H16.9096V14.0904H14.0904ZM22.5452 11.2726V14.0904H25.3644V11.2726H22.5452Z" fill="#C2E64A"/>
</svg>
