<svg width="123" height="24" viewBox="0 0 123 24" fill="none" xmlns="http://www.w3.org/2000/svg">
<rect width="123" height="24" rx="4" fill="#C2E64A"/>
<path d="M10.6348 16V8.72461H13.4961C14.0495 8.72461 14.5199 8.8304 14.9072 9.04199C15.2979 9.25358 15.5957 9.54492 15.8008 9.91602C16.0059 10.2871 16.1084 10.7135 16.1084 11.1953C16.1084 11.6771 16.0042 12.1019 15.7959 12.4697C15.5876 12.8376 15.2865 13.1257 14.8926 13.334C14.4987 13.5391 14.0218 13.6416 13.4619 13.6416H12.168V16H10.6348ZM12.168 12.4111H13.208C13.654 12.4111 13.9844 12.2988 14.1992 12.0742C14.4173 11.8464 14.5264 11.5534 14.5264 11.1953C14.5264 10.8307 14.4173 10.5378 14.1992 10.3164C13.9811 10.0951 13.6491 9.98438 13.2031 9.98438H12.168V12.4111ZM17.0801 16V10.541H18.5449V11.498H18.6035C18.7012 11.1595 18.8672 10.904 19.1016 10.7314C19.3359 10.5557 19.6061 10.4678 19.9121 10.4678C19.987 10.4678 20.0684 10.4727 20.1562 10.4824C20.2441 10.4922 20.3206 10.5052 20.3857 10.5215V11.8594C20.3141 11.8366 20.2148 11.8187 20.0879 11.8057C19.9642 11.7894 19.8503 11.7812 19.7461 11.7812C19.4141 11.7812 19.139 11.887 18.9209 12.0986C18.7028 12.307 18.5938 12.5788 18.5938 12.9141V16H17.0801ZM21.1719 16V10.541H22.6855V16H21.1719ZM21.9287 9.84277C21.7041 9.84277 21.5104 9.7679 21.3477 9.61816C21.1882 9.46842 21.1084 9.28776 21.1084 9.07617C21.1084 8.86458 21.1882 8.68555 21.3477 8.53906C21.5104 8.38932 21.7041 8.31445 21.9287 8.31445C22.1533 8.31445 22.3454 8.38932 22.5049 8.53906C22.6676 8.68555 22.749 8.86458 22.749 9.07617C22.749 9.28776 22.6676 9.46842 22.5049 9.61816C22.3454 9.7679 22.1533 9.84277 21.9287 9.84277ZM23.8965 10.541H25.4102V16.2734C25.4102 16.9017 25.2246 17.3525 24.8535 17.626C24.4857 17.9027 23.9811 18.041 23.3398 18.041H23.0371V16.8594H23.2324C23.4766 16.8594 23.6475 16.8073 23.7451 16.7031C23.846 16.6022 23.8965 16.4508 23.8965 16.249V10.541ZM24.6484 9.84277C24.4238 9.84277 24.2301 9.7679 24.0674 9.61816C23.9079 9.46842 23.8281 9.28776 23.8281 9.07617C23.8281 8.86458 23.9079 8.68555 24.0674 8.53906C24.2301 8.38932 24.4238 8.31445 24.6484 8.31445C24.873 8.31445 25.0651 8.38932 25.2246 8.53906C25.3874 8.68555 25.4688 8.86458 25.4688 9.07617C25.4688 9.28776 25.3874 9.46842 25.2246 9.61816C25.0651 9.7679 24.873 9.84277 24.6484 9.84277ZM29.1064 16.1074C28.5465 16.1074 28.0648 15.9935 27.6611 15.7656C27.2575 15.5378 26.9466 15.2139 26.7285 14.7939C26.5104 14.3708 26.4014 13.8711 26.4014 13.2949C26.4014 12.735 26.5088 12.2435 26.7236 11.8203C26.9417 11.3971 27.2477 11.0667 27.6416 10.8291C28.0355 10.5915 28.4993 10.4727 29.0332 10.4727C29.515 10.4727 29.9495 10.5752 30.3369 10.7803C30.7275 10.9854 31.0368 11.293 31.2646 11.7031C31.4958 12.1133 31.6113 12.6276 31.6113 13.2461V13.6562H27.8906C27.9069 14.0697 28.0273 14.3936 28.252 14.6279C28.4766 14.8623 28.7695 14.9795 29.1309 14.9795C29.3815 14.9795 29.5964 14.9258 29.7754 14.8184C29.9577 14.7109 30.0879 14.5547 30.166 14.3496L31.5625 14.4424C31.4551 14.9437 31.1865 15.3473 30.7568 15.6533C30.3304 15.9561 29.7803 16.1074 29.1064 16.1074ZM27.9004 12.7236H30.1611C30.1253 12.3786 30.0146 12.1051 29.8291 11.9033C29.6436 11.7015 29.3831 11.6006 29.0479 11.6006C28.7093 11.6006 28.4408 11.7064 28.2422 11.918C28.0469 12.1263 27.9329 12.3949 27.9004 12.7236ZM34.6045 16.0879C34.1878 16.0879 33.8118 15.9805 33.4766 15.7656C33.1413 15.5508 32.876 15.235 32.6807 14.8184C32.4854 14.3984 32.3877 13.8857 32.3877 13.2803C32.3877 12.6553 32.4886 12.1344 32.6904 11.7178C32.8923 11.3011 33.1608 10.9902 33.4961 10.7852C33.8314 10.5768 34.1976 10.4727 34.5947 10.4727C34.9007 10.4727 35.1562 10.5247 35.3613 10.6289C35.5664 10.7298 35.7324 10.8568 35.8594 11.0098C35.9863 11.1628 36.0824 11.3141 36.1475 11.4639H36.1914V8.72461H37.7051V16H36.2158V15.126H36.1475C36.0791 15.2757 35.9798 15.4255 35.8496 15.5752C35.7194 15.7217 35.5518 15.8438 35.3467 15.9414C35.1449 16.0391 34.8975 16.0879 34.6045 16.0879ZM36.2256 13.2754C36.2256 12.7871 36.1263 12.3981 35.9277 12.1084C35.7292 11.8187 35.446 11.6738 35.0781 11.6738C34.7038 11.6738 34.4189 11.8219 34.2236 12.1182C34.0316 12.4144 33.9355 12.8001 33.9355 13.2754C33.9355 13.7474 34.0332 14.1348 34.2285 14.4375C34.4238 14.737 34.707 14.8867 35.0781 14.8867C35.4427 14.8867 35.7243 14.7386 35.9229 14.4424C36.1247 14.1462 36.2256 13.7572 36.2256 13.2754ZM40.4297 8.72461V16H38.916V8.72461H40.4297ZM44.1016 16.1074C43.5514 16.1074 43.0745 15.9902 42.6709 15.7559C42.2705 15.5182 41.9613 15.1895 41.7432 14.7695C41.5283 14.3464 41.4209 13.8548 41.4209 13.2949C41.4209 12.7318 41.5283 12.2386 41.7432 11.8154C41.9613 11.3923 42.2705 11.0635 42.6709 10.8291C43.0745 10.5915 43.5514 10.4727 44.1016 10.4727C44.6549 10.4727 45.1318 10.5915 45.5322 10.8291C45.9359 11.0635 46.2451 11.3923 46.46 11.8154C46.6781 12.2386 46.7871 12.7318 46.7871 13.2949C46.7871 13.8548 46.6781 14.3464 46.46 14.7695C46.2451 15.1895 45.9359 15.5182 45.5322 15.7559C45.1318 15.9902 44.6549 16.1074 44.1016 16.1074ZM42.959 13.2852C42.959 13.7604 43.055 14.1527 43.2471 14.4619C43.4391 14.7712 43.7256 14.9258 44.1064 14.9258C44.484 14.9258 44.7689 14.7712 44.9609 14.4619C45.153 14.1527 45.249 13.7604 45.249 13.2852C45.249 12.8099 45.153 12.4193 44.9609 12.1133C44.7689 11.8073 44.484 11.6543 44.1064 11.6543C43.7256 11.6543 43.4391 11.8073 43.2471 12.1133C43.055 12.4193 42.959 12.8099 42.959 13.2852ZM50.2295 18.1582C49.4938 18.1582 48.916 18.0117 48.4961 17.7188C48.0794 17.429 47.8271 17.0677 47.7393 16.6348L49.1357 16.4492C49.1976 16.6152 49.3164 16.7601 49.4922 16.8838C49.6712 17.0075 49.9284 17.0693 50.2637 17.0693C50.5924 17.0693 50.8643 16.9896 51.0791 16.8301C51.2939 16.6738 51.4014 16.4085 51.4014 16.0342V15.0332H51.333C51.2354 15.2611 51.0596 15.4661 50.8057 15.6484C50.555 15.8307 50.2116 15.9219 49.7754 15.9219C49.3685 15.9219 48.9974 15.8275 48.6621 15.6387C48.3268 15.4466 48.0599 15.1536 47.8613 14.7598C47.6628 14.3659 47.5635 13.8678 47.5635 13.2656C47.5635 12.6439 47.6644 12.1263 47.8662 11.7129C48.0713 11.2995 48.3415 10.9902 48.6768 10.7852C49.012 10.5768 49.3799 10.4727 49.7803 10.4727C50.083 10.4727 50.3385 10.5247 50.5469 10.6289C50.7552 10.7298 50.9229 10.8568 51.0498 11.0098C51.18 11.1628 51.2793 11.3141 51.3477 11.4639H51.4062V10.541H52.8906V16.0586C52.8906 16.5208 52.7767 16.9082 52.5488 17.2207C52.321 17.5332 52.0068 17.7676 51.6064 17.9238C51.2093 18.0801 50.7503 18.1582 50.2295 18.1582ZM49.1113 13.2559C49.1113 13.7246 49.209 14.0973 49.4043 14.374C49.6029 14.6475 49.8877 14.7842 50.2588 14.7842C50.6234 14.7842 50.9049 14.6491 51.1035 14.3789C51.3053 14.1087 51.4062 13.7344 51.4062 13.2559C51.4062 12.7773 51.307 12.3949 51.1084 12.1084C50.9098 11.8187 50.6266 11.6738 50.2588 11.6738C49.8844 11.6738 49.5996 11.8219 49.4043 12.1182C49.209 12.4111 49.1113 12.7904 49.1113 13.2559ZM56.4014 16V15.0967L59.0674 11.791V11.752H56.4844V10.541H60.8887V11.5322L58.3838 14.75V14.7891H60.9766V16H56.4014ZM63.7061 16.1025C63.1852 16.1025 62.7523 15.9674 62.4072 15.6973C62.0654 15.4238 61.8945 15.0169 61.8945 14.4766C61.8945 14.0697 61.9889 13.7507 62.1777 13.5195C62.3698 13.2852 62.6221 13.1143 62.9346 13.0068C63.2471 12.8962 63.5824 12.8245 63.9404 12.792C64.4157 12.7464 64.7542 12.6992 64.9561 12.6504C65.1611 12.5983 65.2637 12.4844 65.2637 12.3086V12.2842C65.2637 12.0596 65.1921 11.8854 65.0488 11.7617C64.9056 11.638 64.6989 11.5762 64.4287 11.5762C64.1585 11.5762 63.9372 11.6348 63.7646 11.752C63.5954 11.8691 63.4831 12.0189 63.4277 12.2012L62.0508 11.9814C62.181 11.5062 62.4544 11.1367 62.8711 10.873C63.291 10.6061 63.8118 10.4727 64.4336 10.4727C64.8372 10.4727 65.2165 10.5361 65.5713 10.6631C65.9294 10.79 66.2191 10.9902 66.4404 11.2637C66.6618 11.5339 66.7725 11.8854 66.7725 12.3184V16H65.3418V15.2383H65.2979C65.1644 15.4954 64.9658 15.7038 64.7021 15.8633C64.4417 16.0228 64.1097 16.1025 63.7061 16.1025ZM63.335 14.4277C63.335 14.6361 63.4098 14.7939 63.5596 14.9014C63.7126 15.0055 63.9046 15.0576 64.1357 15.0576C64.4678 15.0576 64.7396 14.9616 64.9512 14.7695C65.166 14.5775 65.2734 14.3382 65.2734 14.0518V13.4707C65.2148 13.5098 65.1221 13.5456 64.9951 13.5781C64.8714 13.6107 64.7396 13.6383 64.5996 13.6611C64.4596 13.6807 64.3343 13.6986 64.2236 13.7148C63.9567 13.7539 63.7419 13.8304 63.5791 13.9443C63.4163 14.055 63.335 14.2161 63.335 14.4277ZM74.8438 12.0986L73.4668 12.1816C73.4277 12.0091 73.3301 11.861 73.1738 11.7373C73.0208 11.6104 72.8125 11.5469 72.5488 11.5469C72.3145 11.5469 72.1175 11.5957 71.958 11.6934C71.7985 11.791 71.7188 11.9212 71.7188 12.084C71.7188 12.2142 71.7708 12.3249 71.875 12.416C71.9792 12.5072 72.1566 12.5804 72.4072 12.6357L73.3984 12.8311C74.4466 13.0394 74.9707 13.5309 74.9707 14.3057C74.9707 14.667 74.8665 14.9827 74.6582 15.2529C74.4499 15.5231 74.1634 15.7331 73.7988 15.8828C73.4342 16.0326 73.016 16.1074 72.5439 16.1074C71.8213 16.1074 71.2467 15.9577 70.8203 15.6582C70.3939 15.3555 70.1432 14.9437 70.0684 14.4229L71.5527 14.3447C71.6536 14.7939 71.9857 15.0186 72.5488 15.0186C72.8125 15.0186 73.0257 14.9665 73.1885 14.8623C73.3512 14.7581 73.4326 14.6263 73.4326 14.4668C73.4326 14.1966 73.1999 14.0143 72.7344 13.9199L71.792 13.7246C70.7406 13.513 70.2148 12.9954 70.2148 12.1719C70.2148 11.6445 70.4248 11.2295 70.8447 10.9268C71.2679 10.624 71.8278 10.4727 72.5244 10.4727C73.2145 10.4727 73.7581 10.6191 74.1553 10.9121C74.5524 11.2018 74.7819 11.5973 74.8438 12.0986ZM79.4238 13.6807V10.541H80.9375V16H79.4824V15.0088H79.4238C79.3034 15.3278 79.0999 15.585 78.8135 15.7803C78.5303 15.9756 78.1836 16.0716 77.7734 16.0684C77.2233 16.0716 76.7773 15.891 76.4355 15.5264C76.097 15.1585 75.9277 14.6556 75.9277 14.0176V10.541H77.4414V13.7539C77.4414 14.0729 77.5277 14.3268 77.7002 14.5156C77.8727 14.7012 78.1022 14.7923 78.3887 14.7891C78.6589 14.7923 78.8981 14.6995 79.1064 14.5107C79.318 14.3219 79.4238 14.0452 79.4238 13.6807ZM82.1484 16V10.541H83.6133V11.498H83.6719C83.7695 11.1595 83.9355 10.904 84.1699 10.7314C84.4043 10.5557 84.6745 10.4678 84.9805 10.4678C85.0553 10.4678 85.1367 10.4727 85.2246 10.4824C85.3125 10.4922 85.389 10.5052 85.4541 10.5215V11.8594C85.3825 11.8366 85.2832 11.8187 85.1562 11.8057C85.0326 11.7894 84.9186 11.7812 84.8145 11.7812C84.4824 11.7812 84.2074 11.887 83.9893 12.0986C83.7712 12.307 83.6621 12.5788 83.6621 12.9141V16H82.1484ZM87.7979 16.1025C87.277 16.1025 86.8441 15.9674 86.499 15.6973C86.1572 15.4238 85.9863 15.0169 85.9863 14.4766C85.9863 14.0697 86.0807 13.7507 86.2695 13.5195C86.4616 13.2852 86.7139 13.1143 87.0264 13.0068C87.3389 12.8962 87.6742 12.8245 88.0322 12.792C88.5075 12.7464 88.846 12.6992 89.0479 12.6504C89.2529 12.5983 89.3555 12.4844 89.3555 12.3086V12.2842C89.3555 12.0596 89.2839 11.8854 89.1406 11.7617C88.9974 11.638 88.7907 11.5762 88.5205 11.5762C88.2503 11.5762 88.029 11.6348 87.8564 11.752C87.6872 11.8691 87.5749 12.0189 87.5195 12.2012L86.1426 11.9814C86.2728 11.5062 86.5462 11.1367 86.9629 10.873C87.3828 10.6061 87.9036 10.4727 88.5254 10.4727C88.929 10.4727 89.3083 10.5361 89.6631 10.6631C90.0212 10.79 90.3109 10.9902 90.5322 11.2637C90.7536 11.5339 90.8643 11.8854 90.8643 12.3184V16H89.4336V15.2383H89.3896C89.2562 15.4954 89.0576 15.7038 88.7939 15.8633C88.5335 16.0228 88.2015 16.1025 87.7979 16.1025ZM87.4268 14.4277C87.4268 14.6361 87.5016 14.7939 87.6514 14.9014C87.8044 15.0055 87.9964 15.0576 88.2275 15.0576C88.5596 15.0576 88.8314 14.9616 89.043 14.7695C89.2578 14.5775 89.3652 14.3382 89.3652 14.0518V13.4707C89.3066 13.5098 89.2139 13.5456 89.0869 13.5781C88.9632 13.6107 88.8314 13.6383 88.6914 13.6611C88.5514 13.6807 88.4261 13.6986 88.3154 13.7148C88.0485 13.7539 87.8337 13.8304 87.6709 13.9443C87.5081 14.055 87.4268 14.2161 87.4268 14.4277ZM94.0771 16.0879C93.6605 16.0879 93.2845 15.9805 92.9492 15.7656C92.6139 15.5508 92.3486 15.235 92.1533 14.8184C91.958 14.3984 91.8604 13.8857 91.8604 13.2803C91.8604 12.6553 91.9613 12.1344 92.1631 11.7178C92.3649 11.3011 92.6335 10.9902 92.9688 10.7852C93.304 10.5768 93.6702 10.4727 94.0674 10.4727C94.3734 10.4727 94.6289 10.5247 94.834 10.6289C95.0391 10.7298 95.2051 10.8568 95.332 11.0098C95.459 11.1628 95.555 11.3141 95.6201 11.4639H95.6641V8.72461H97.1777V16H95.6885V15.126H95.6201C95.5518 15.2757 95.4525 15.4255 95.3223 15.5752C95.1921 15.7217 95.0244 15.8438 94.8193 15.9414C94.6175 16.0391 94.3701 16.0879 94.0771 16.0879ZM95.6982 13.2754C95.6982 12.7871 95.599 12.3981 95.4004 12.1084C95.2018 11.8187 94.9186 11.6738 94.5508 11.6738C94.1764 11.6738 93.8916 11.8219 93.6963 12.1182C93.5042 12.4144 93.4082 12.8001 93.4082 13.2754C93.4082 13.7474 93.5059 14.1348 93.7012 14.4375C93.8965 14.737 94.1797 14.8867 94.5508 14.8867C94.9154 14.8867 95.1969 14.7386 95.3955 14.4424C95.5973 14.1462 95.6982 13.7572 95.6982 13.2754ZM99.9023 12.8457V16H98.3887V10.541H99.8779V11.5127H99.9316C100.055 11.1937 100.252 10.9414 100.522 10.7559C100.793 10.5671 101.13 10.4727 101.533 10.4727C102.103 10.4727 102.559 10.6566 102.9 11.0244C103.245 11.389 103.418 11.8903 103.418 12.5283V16H101.904V12.7969C101.904 12.4616 101.818 12.1995 101.646 12.0107C101.476 11.8219 101.24 11.7275 100.938 11.7275C100.632 11.7275 100.382 11.8268 100.19 12.0254C99.9984 12.2207 99.9023 12.4941 99.9023 12.8457ZM104.629 10.541H106.143V16.2734C106.143 16.9017 105.957 17.3525 105.586 17.626C105.218 17.9027 104.714 18.041 104.072 18.041H103.77V16.8594H103.965C104.209 16.8594 104.38 16.8073 104.478 16.7031C104.578 16.6022 104.629 16.4508 104.629 16.249V10.541ZM105.381 9.84277C105.156 9.84277 104.963 9.7679 104.8 9.61816C104.64 9.46842 104.561 9.28776 104.561 9.07617C104.561 8.86458 104.64 8.68555 104.8 8.53906C104.963 8.38932 105.156 8.31445 105.381 8.31445C105.605 8.31445 105.798 8.38932 105.957 8.53906C106.12 8.68555 106.201 8.86458 106.201 9.07617C106.201 9.28776 106.12 9.46842 105.957 9.61816C105.798 9.7679 105.605 9.84277 105.381 9.84277ZM110.85 13.6807V10.541H112.363V16H110.908V15.0088H110.85C110.729 15.3278 110.526 15.585 110.239 15.7803C109.956 15.9756 109.609 16.0716 109.199 16.0684C108.649 16.0716 108.203 15.891 107.861 15.5264C107.523 15.1585 107.354 14.6556 107.354 14.0176V10.541H108.867V13.7539C108.867 14.0729 108.953 14.3268 109.126 14.5156C109.299 14.7012 109.528 14.7923 109.814 14.7891C110.085 14.7923 110.324 14.6995 110.532 14.5107C110.744 14.3219 110.85 14.0452 110.85 13.6807Z" fill="black"/>
</svg>
