<svg width="32" height="32" viewBox="0 0 32 32" fill="none" xmlns="http://www.w3.org/2000/svg">
<g clip-path="url(#clip0_75_1316)">
<path d="M16.944 30.116H15.06V32H16.944V30.116Z" fill="#C2E64A"/>
<path d="M28.236 28.236H26.352V30.12H28.236V28.236Z" fill="#C2E64A"/>
<path d="M18.824 28.236H16.94V30.12H18.824V28.236Z" fill="#C2E64A"/>
<path d="M16.944 28.236H15.06V30.12H16.944V28.236Z" fill="#C2E64A"/>
<path d="M15.06 28.236H13.176V30.12H15.06V28.236Z" fill="#C2E64A"/>
<path d="M5.648 28.236H3.764V30.12H5.648V28.236Z" fill="#C2E64A"/>
<path d="M30.12 26.352H28.236V28.236H30.12V26.352Z" fill="#C2E64A"/>
<path d="M28.236 26.352H26.352V28.236H28.236V26.352Z" fill="#C2E64A"/>
<path d="M26.356 26.352H24.472V28.236H26.356V26.352Z" fill="#C2E64A"/>
<path d="M18.824 26.352H16.94V28.236H18.824V26.352Z" fill="#C2E64A"/>
<path d="M15.06 26.352H13.176V28.236H15.06V26.352Z" fill="#C2E64A"/>
<path d="M7.532 26.352H5.648V28.236H7.532V26.352Z" fill="#C2E64A"/>
<path d="M5.648 26.352H3.764V28.236H5.648V26.352Z" fill="#C2E64A"/>
<path d="M3.768 26.352H1.884V28.236H3.768V26.352Z" fill="#C2E64A"/>
<path d="M30.12 24.472H28.236V26.356H30.12V24.472Z" fill="#C2E64A"/>
<path d="M26.356 24.472H24.472V26.356H26.356V24.472Z" fill="#C2E64A"/>
<path d="M20.708 24.472H18.824V26.356H20.708V24.472Z" fill="#C2E64A"/>
<path d="M18.824 24.472H16.94V26.356H18.824V24.472Z" fill="#C2E64A"/>
<path d="M16.944 24.472H15.06V26.356H16.944V24.472Z" fill="#C2E64A"/>
<path d="M15.06 24.472H13.176V26.356H15.06V24.472Z" fill="#C2E64A"/>
<path d="M13.18 24.472H11.296V26.356H13.18V24.472Z" fill="#C2E64A"/>
<path d="M7.532 24.472H5.648V26.356H7.532V24.472Z" fill="#C2E64A"/>
<path d="M3.768 24.472H1.884V26.356H3.768V24.472Z" fill="#C2E64A"/>
<path d="M32 22.588H30.116V24.472H32V22.588Z" fill="#C2E64A"/>
<path d="M30.12 22.588H28.236V24.472H30.12V22.588Z" fill="#C2E64A"/>
<path d="M28.236 22.588H26.352V24.472H28.236V22.588Z" fill="#C2E64A"/>
<path d="M26.356 22.588H24.472V24.472H26.356V22.588Z" fill="#C2E64A"/>
<path d="M24.472 22.588H22.588V24.472H24.472V22.588Z" fill="#C2E64A"/>
<path d="M22.588 22.588H20.704V24.472H22.588V22.588Z" fill="#C2E64A"/>
<path d="M11.296 22.588H9.41199V24.472H11.296V22.588Z" fill="#C2E64A"/>
<path d="M9.412 22.588H7.528V24.472H9.412V22.588Z" fill="#C2E64A"/>
<path d="M7.532 22.588H5.648V24.472H7.532V22.588Z" fill="#C2E64A"/>
<path d="M5.648 22.588H3.764V24.472H5.648V22.588Z" fill="#C2E64A"/>
<path d="M3.768 22.588H1.884V24.472H3.768V22.588Z" fill="#C2E64A"/>
<path d="M1.884 22.588H0V24.472H1.884V22.588Z" fill="#C2E64A"/>
<path d="M32 20.704H30.116V22.588H32V20.704Z" fill="#C2E64A"/>
<path d="M22.588 20.704H20.704V22.588H22.588V20.704Z" fill="#C2E64A"/>
<path d="M18.824 20.704H16.94V22.588H18.824V20.704Z" fill="#C2E64A"/>
<path d="M15.06 20.704H13.176V22.588H15.06V20.704Z" fill="#C2E64A"/>
<path d="M11.296 20.704H9.41199V22.588H11.296V20.704Z" fill="#C2E64A"/>
<path d="M1.884 20.704H0V22.588H1.884V20.704Z" fill="#C2E64A"/>
<path d="M30.12 18.824H28.236V20.708H30.12V18.824Z" fill="#C2E64A"/>
<path d="M28.236 18.824H26.352V20.708H28.236V18.824Z" fill="#C2E64A"/>
<path d="M22.588 18.824H20.704V20.708H22.588V18.824Z" fill="#C2E64A"/>
<path d="M11.296 18.824H9.41199V20.708H11.296V18.824Z" fill="#C2E64A"/>
<path d="M5.648 18.824H3.764V20.708H5.648V18.824Z" fill="#C2E64A"/>
<path d="M3.768 18.824H1.884V20.708H3.768V18.824Z" fill="#C2E64A"/>
<path d="M28.236 16.94H26.352V18.824H28.236V16.94Z" fill="#C2E64A"/>
<path d="M26.356 16.94H24.472V18.824H26.356V16.94Z" fill="#C2E64A"/>
<path d="M22.588 16.94H20.704V18.824H22.588V16.94Z" fill="#C2E64A"/>
<path d="M16.944 18.824H15.06V20.708H16.944V18.824Z" fill="#C2E64A"/>
<path d="M16.944 16.94H15.06V18.824H16.944V16.94Z" fill="#C2E64A"/>
<path d="M11.296 16.94H9.41199V18.824H11.296V16.94Z" fill="#C2E64A"/>
<path d="M7.532 16.94H5.648V18.824H7.532V16.94Z" fill="#C2E64A"/>
<path d="M5.648 16.94H3.764V18.824H5.648V16.94Z" fill="#C2E64A"/>
<path d="M26.356 15.06H24.472V16.944H26.356V15.06Z" fill="#C2E64A"/>
<path d="M24.472 15.06H22.588V16.944H24.472V15.06Z" fill="#C2E64A"/>
<path d="M22.588 15.06H20.704V16.944H22.588V15.06Z" fill="#C2E64A"/>
<path d="M11.296 15.06H9.41199V16.944H11.296V15.06Z" fill="#C2E64A"/>
<path d="M9.412 15.06H7.528V16.944H9.412V15.06Z" fill="#C2E64A"/>
<path d="M7.532 15.06H5.648V16.944H7.532V15.06Z" fill="#C2E64A"/>
<path d="M24.472 13.176H22.588V15.06H24.472V13.176Z" fill="#C2E64A"/>
<path d="M22.588 13.176H20.704V15.06H22.588V13.176Z" fill="#C2E64A"/>
<path d="M16.944 13.176H15.06V15.06H16.944V13.176Z" fill="#C2E64A"/>
<path d="M11.296 13.176H9.41199V15.06H11.296V13.176Z" fill="#C2E64A"/>
<path d="M9.412 13.176H7.528V15.06H9.412V13.176Z" fill="#C2E64A"/>
<path d="M22.588 11.296H20.704V13.18H22.588V11.296Z" fill="#C2E64A"/>
<path d="M18.824 11.296H16.94V13.18H18.824V11.296Z" fill="#C2E64A"/>
<path d="M15.06 11.296H13.176V13.18H15.06V11.296Z" fill="#C2E64A"/>
<path d="M11.296 11.296H9.41199V13.18H11.296V11.296Z" fill="#C2E64A"/>
<path d="M22.588 9.41199H20.704V11.296H22.588V9.41199Z" fill="#C2E64A"/>
<path d="M16.944 9.41199H15.06V11.296H16.944V9.41199Z" fill="#C2E64A"/>
<path d="M11.296 9.41199H9.41199V11.296H11.296V9.41199Z" fill="#C2E64A"/>
<path d="M22.588 7.52802H20.704V9.41201H22.588V7.52802Z" fill="#C2E64A"/>
<path d="M11.296 7.52802H9.41199V9.41201H11.296V7.52802Z" fill="#C2E64A"/>
<path d="M20.708 5.64801H18.824V7.53201H20.708V5.64801Z" fill="#C2E64A"/>
<path d="M13.18 5.64801H11.296V7.53201H13.18V5.64801Z" fill="#C2E64A"/>
<path d="M20.708 3.76398H18.824V5.64798H20.708V3.76398Z" fill="#C2E64A"/>
<path d="M18.824 3.76398H16.94V5.64798H18.824V3.76398Z" fill="#C2E64A"/>
<path d="M16.944 3.76398H15.06V5.64798H16.944V3.76398Z" fill="#C2E64A"/>
<path d="M15.06 3.76398H13.176V5.64798H15.06V3.76398Z" fill="#C2E64A"/>
<path d="M13.18 3.76398H11.296V5.64798H13.18V3.76398Z" fill="#C2E64A"/>
<path d="M18.824 1.88397H16.94V3.76797H18.824V1.88397Z" fill="#C2E64A"/>
<path d="M16.944 1.88397H15.06V3.76797H16.944V1.88397Z" fill="#C2E64A"/>
<path d="M15.06 1.88397H13.176V3.76797H15.06V1.88397Z" fill="#C2E64A"/>
<path d="M16.944 0H15.06V1.884H16.944V0Z" fill="#C2E64A"/>
</g>
<defs>
<clipPath id="clip0_75_1316">
<rect width="32" height="32" fill="white"/>
</clipPath>
</defs>
</svg>
