<svg width="171" height="160" viewBox="0 0 171 160" fill="none" xmlns="http://www.w3.org/2000/svg">
<g clip-path="url(#clip0_503_7507)">
<path d="M56.5275 29.4214L47.7683 27.7549L32.4186 108.431L41.1778 110.098L56.5275 29.4214Z" fill="#C2E64A"/>
<path d="M139.624 45.2329L130.865 43.5664L115.515 124.243L124.274 125.91L139.624 45.2329Z" fill="#C2E64A"/>
<path d="M132.529 34.8058L58.1914 20.6621L56.5248 29.4213L130.863 43.565L132.529 34.8058Z" fill="#C2E64A"/>
<path d="M66.411 93.2842L58.862 91.8479L57.6449 98.2444L51.2484 97.0274L49.8121 104.576L56.2086 105.793L54.9916 112.19L62.5406 113.626L63.7577 107.23L70.1542 108.447L71.5905 100.898L65.194 99.6807L66.411 93.2842Z" fill="#C2E64A"/>
<path d="M96.3037 112.227L88.7547 110.791L87.3184 118.34L94.8674 119.776L96.3037 112.227Z" fill="#C2E64A"/>
<path d="M107.637 103.814L100.088 102.378L98.6514 109.927L106.2 111.363L107.637 103.814Z" fill="#C2E64A"/>
<path d="M106.845 128.684L47.6058 117.413L48.7351 111.477L41.186 110.041L38.456 124.39L46.005 125.826L105.245 137.097L106.527 130.355L114.076 131.791L115.524 124.185L107.975 122.748L106.845 128.684Z" fill="#C2E64A"/>
<path d="M53.9901 83.8742L113.23 95.1453L121.88 49.6783L62.6407 38.4072L54.001 83.8166L53.9901 83.8742ZM100.545 58.8751L108.094 60.3114L106.658 67.8604L99.1087 66.4241L100.545 58.8751ZM77.3416 71.2992L96.0701 74.8625L94.6338 82.4116L75.9053 78.8482L77.3416 71.2992ZM71.5014 53.3492L79.0505 54.7855L77.6142 62.3345L70.0651 60.8982L71.5014 53.3492Z" fill="#C2E64A"/>
</g>
<defs>
<clipPath id="clip0_503_7507">
<rect width="148.604" height="133.779" fill="white" transform="translate(25.0047) rotate(10.7725)"/>
</clipPath>
</defs>
</svg>
