<svg width="202" height="202" viewBox="0 0 202 202" fill="none" xmlns="http://www.w3.org/2000/svg">
<circle cx="100.426" cy="100.63" r="80.1597" transform="rotate(-17.3605 100.426 100.63)" fill="#C2E64A"/>
<g clip-path="url(#clip0_504_8281)">
<path d="M109.13 120.874L105.901 121.884L106.91 125.113L110.139 124.103L109.13 120.874Z" fill="black"/>
<path d="M127.476 111.603L124.247 112.612L125.256 115.841L128.485 114.832L127.476 111.603Z" fill="black"/>
<path d="M111.345 116.646L108.116 117.655L109.125 120.884L112.354 119.875L111.345 116.646Z" fill="black"/>
<path d="M108.123 117.653L104.894 118.662L105.903 121.891L109.132 120.882L108.123 117.653Z" fill="black"/>
<path d="M104.894 118.662L101.665 119.672L102.674 122.901L105.903 121.891L104.894 118.662Z" fill="black"/>
<path d="M88.7626 123.705L85.5336 124.715L86.5431 127.944L89.7721 126.934L88.7626 123.705Z" fill="black"/>
<path d="M129.695 107.364L126.467 108.373L127.476 111.602L130.705 110.593L129.695 107.364Z" fill="black"/>
<path d="M126.467 108.373L123.238 109.383L124.247 112.612L127.476 111.602L126.467 108.373Z" fill="black"/>
<path d="M123.244 109.381L120.015 110.391L121.025 113.62L124.254 112.61L123.244 109.381Z" fill="black"/>
<path d="M110.335 113.416L107.106 114.426L108.116 117.655L111.345 116.645L110.335 113.416Z" fill="black"/>
<path d="M103.884 115.433L100.655 116.442L101.665 119.671L104.894 118.662L103.884 115.433Z" fill="black"/>
<path d="M90.9821 119.467L87.7531 120.477L88.7626 123.706L91.9916 122.696L90.9821 119.467Z" fill="black"/>
<path d="M87.7531 120.476L84.5242 121.485L85.5336 124.714L88.7626 123.705L87.7531 120.476Z" fill="black"/>
<path d="M84.531 121.484L81.302 122.493L82.3115 125.722L85.5405 124.713L84.531 121.484Z" fill="black"/>
<path d="M128.688 104.142L125.459 105.151L126.469 108.38L129.698 107.371L128.688 104.142Z" fill="black"/>
<path d="M122.237 106.159L119.008 107.168L120.018 110.397L123.247 109.387L122.237 106.159Z" fill="black"/>
<path d="M112.557 109.185L109.328 110.194L110.338 113.423L113.566 112.414L112.557 109.185Z" fill="black"/>
<path d="M109.328 110.195L106.099 111.204L107.109 114.433L110.338 113.424L109.328 110.195Z" fill="black"/>
<path d="M106.106 111.201L102.877 112.211L103.886 115.44L107.115 114.43L106.106 111.201Z" fill="black"/>
<path d="M102.877 112.211L99.648 113.221L100.657 116.45L103.886 115.44L102.877 112.211Z" fill="black"/>
<path d="M99.6548 113.218L96.4259 114.228L97.4353 117.457L100.664 116.447L99.6548 113.218Z" fill="black"/>
<path d="M89.9748 116.244L86.7458 117.254L87.7553 120.483L90.9842 119.473L89.9748 116.244Z" fill="black"/>
<path d="M83.5237 118.261L80.2947 119.271L81.3042 122.499L84.5332 121.49L83.5237 118.261Z" fill="black"/>
<path d="M130.901 99.9056L127.672 100.915L128.681 104.144L131.91 103.135L130.901 99.9056Z" fill="black"/>
<path d="M127.679 100.912L124.45 101.922L125.459 105.151L128.688 104.141L127.679 100.912Z" fill="black"/>
<path d="M124.45 101.922L121.221 102.932L122.23 106.161L125.459 105.151L124.45 101.922Z" fill="black"/>
<path d="M121.228 102.93L117.999 103.939L119.008 107.168L122.237 106.159L121.228 102.93Z" fill="black"/>
<path d="M117.999 103.939L114.77 104.948L115.779 108.177L119.008 107.168L117.999 103.939Z" fill="black"/>
<path d="M114.77 104.949L111.541 105.958L112.55 109.187L115.779 108.178L114.77 104.949Z" fill="black"/>
<path d="M95.4164 110.998L92.1875 112.008L93.1969 115.237L96.4259 114.227L95.4164 110.998Z" fill="black"/>
<path d="M92.1875 112.008L88.9585 113.018L89.9679 116.247L93.1969 115.237L92.1875 112.008Z" fill="black"/>
<path d="M88.9653 113.016L85.7364 114.025L86.7458 117.254L89.9748 116.245L88.9653 113.016Z" fill="black"/>
<path d="M85.7364 114.025L82.5074 115.034L83.5168 118.263L86.7458 117.254L85.7364 114.025Z" fill="black"/>
<path d="M82.5142 115.033L79.2853 116.042L80.2947 119.271L83.5237 118.262L82.5142 115.033Z" fill="black"/>
<path d="M79.2853 116.042L76.0563 117.052L77.0658 120.281L80.2947 119.271L79.2853 116.042Z" fill="black"/>
<path d="M129.891 96.6771L126.662 97.6865L127.672 100.915L130.901 99.906L129.891 96.6771Z" fill="black"/>
<path d="M113.76 101.72L110.531 102.729L111.541 105.958L114.77 104.949L113.76 101.72Z" fill="black"/>
<path d="M107.309 103.737L104.08 104.746L105.09 107.975L108.319 106.966L107.309 103.737Z" fill="black"/>
<path d="M100.858 105.753L97.6291 106.763L98.6385 109.992L101.868 108.982L100.858 105.753Z" fill="black"/>
<path d="M94.407 107.77L91.178 108.779L92.1875 112.008L95.4164 110.999L94.407 107.77Z" fill="black"/>
<path d="M78.2758 112.813L75.0468 113.822L76.0563 117.051L79.2853 116.042L78.2758 112.813Z" fill="black"/>
<path d="M125.662 94.4622L122.433 95.4717L123.442 98.7007L126.671 97.6912L125.662 94.4622Z" fill="black"/>
<path d="M122.433 95.471L119.204 96.4805L120.213 99.7094L123.442 98.7L122.433 95.471Z" fill="black"/>
<path d="M112.753 98.4974L109.524 99.5068L110.533 102.736L113.762 101.726L112.753 98.4974Z" fill="black"/>
<path d="M93.3997 104.548L90.1707 105.558L91.1801 108.787L94.4091 107.777L93.3997 104.548Z" fill="black"/>
<path d="M83.7196 107.574L80.4906 108.583L81.5001 111.812L84.7291 110.803L83.7196 107.574Z" fill="black"/>
<path d="M80.4975 108.581L77.2685 109.591L78.278 112.82L81.5069 111.81L80.4975 108.581Z" fill="black"/>
<path d="M121.424 92.2425L118.195 93.252L119.204 96.4809L122.433 95.4715L121.424 92.2425Z" fill="black"/>
<path d="M118.201 93.2493L114.972 94.2588L115.982 97.4878L119.211 96.4783L118.201 93.2493Z" fill="black"/>
<path d="M111.743 95.2689L108.514 96.2783L109.524 99.5073L112.753 98.4978L111.743 95.2689Z" fill="black"/>
<path d="M103.08 101.522L99.8508 102.531L100.86 105.76L104.089 104.751L103.08 101.522Z" fill="black"/>
<path d="M102.07 98.2923L98.8413 99.3018L99.8508 102.531L103.08 101.521L102.07 98.2923Z" fill="black"/>
<path d="M92.3902 101.319L89.1612 102.328L90.1707 105.557L93.3997 104.548L92.3902 101.319Z" fill="black"/>
<path d="M85.9391 103.335L82.7101 104.345L83.7196 107.574L86.9486 106.564L85.9391 103.335Z" fill="black"/>
<path d="M82.7101 104.345L79.4812 105.354L80.4906 108.583L83.7196 107.574L82.7101 104.345Z" fill="black"/>
<path d="M117.194 90.0277L113.965 91.0371L114.975 94.2661L118.204 93.2566L117.194 90.0277Z" fill="black"/>
<path d="M113.965 91.0364L110.736 92.0459L111.746 95.2749L114.975 94.2654L113.965 91.0364Z" fill="black"/>
<path d="M110.736 92.0462L107.507 93.0557L108.517 96.2846L111.746 95.2752L110.736 92.0462Z" fill="black"/>
<path d="M91.3829 98.097L88.1539 99.1064L89.1634 102.335L92.3924 101.326L91.3829 98.097Z" fill="black"/>
<path d="M88.1539 99.1058L84.925 100.115L85.9344 103.344L89.1634 102.335L88.1539 99.1058Z" fill="black"/>
<path d="M84.9318 100.114L81.7029 101.123L82.7123 104.352L85.9413 103.343L84.9318 100.114Z" fill="black"/>
<path d="M112.956 87.8079L109.727 88.8174L110.736 92.0464L113.965 91.0369L112.956 87.8079Z" fill="black"/>
<path d="M109.727 88.8177L106.498 89.8271L107.507 93.0561L110.736 92.0467L109.727 88.8177Z" fill="black"/>
<path d="M100.053 91.8411L96.8245 92.8506L97.834 96.0796L101.063 95.0701L100.053 91.8411Z" fill="black"/>
<path d="M90.3734 94.8675L87.1445 95.877L88.1539 99.1059L91.3829 98.0965L90.3734 94.8675Z" fill="black"/>
<path d="M87.1445 95.8773L83.9155 96.8867L84.925 100.116L88.1539 99.1062L87.1445 95.8773Z" fill="black"/>
<path d="M108.719 85.595L105.49 86.6045L106.5 89.8335L109.729 88.824L108.719 85.595Z" fill="black"/>
<path d="M102.268 87.6116L99.0393 88.6211L100.049 91.8501L103.278 90.8406L102.268 87.6116Z" fill="black"/>
<path d="M95.8172 89.6292L92.5883 90.6387L93.5977 93.8676L96.8267 92.8582L95.8172 89.6292Z" fill="black"/>
<path d="M89.3661 91.6458L86.1372 92.6553L87.1466 95.8842L90.3756 94.8748L89.3661 91.6458Z" fill="black"/>
<path d="M107.71 82.3665L104.481 83.376L105.49 86.6049L108.719 85.5955L107.71 82.3665Z" fill="black"/>
<path d="M98.0367 85.39L94.8078 86.3994L95.8172 89.6284L99.0462 88.6189L98.0367 85.39Z" fill="black"/>
<path d="M88.3567 88.4163L85.1277 89.4258L86.1372 92.6548L89.3661 91.6453L88.3567 88.4163Z" fill="black"/>
<path d="M106.701 79.137L103.472 80.1465L104.481 83.3755L107.71 82.366L106.701 79.137Z" fill="black"/>
<path d="M87.3472 85.1878L84.1183 86.1973L85.1277 89.4262L88.3567 88.4168L87.3472 85.1878Z" fill="black"/>
<path d="M102.471 76.9222L99.2421 77.9316L100.252 81.1606L103.481 80.1512L102.471 76.9222Z" fill="black"/>
<path d="M89.5689 80.9564L86.3399 81.9658L87.3494 85.1948L90.5783 84.1853L89.5689 80.9564Z" fill="black"/>
<path d="M101.462 73.6937L98.2326 74.7031L99.2421 77.9321L102.471 76.9226L101.462 73.6937Z" fill="black"/>
<path d="M98.2326 74.7034L95.0037 75.7129L96.0131 78.9419L99.2421 77.9324L98.2326 74.7034Z" fill="black"/>
<path d="M95.0105 75.7103L91.7816 76.7197L92.791 79.9487L96.02 78.9392L95.0105 75.7103Z" fill="black"/>
<path d="M91.7816 76.72L88.5526 77.7295L89.562 80.9585L92.791 79.949L91.7816 76.72Z" fill="black"/>
<path d="M88.5594 77.7269L85.3305 78.7363L86.3399 81.9653L89.5689 80.9558L88.5594 77.7269Z" fill="black"/>
<path d="M97.2253 71.4808L93.9964 72.4902L95.0058 75.7192L98.2348 74.7098L97.2253 71.4808Z" fill="black"/>
<path d="M94.0032 72.4886L90.7742 73.498L91.7837 76.727L95.0127 75.7176L94.0032 72.4886Z" fill="black"/>
<path d="M90.7742 73.4974L87.5453 74.5068L88.5547 77.7358L91.7837 76.7264L90.7742 73.4974Z" fill="black"/>
<path d="M92.9938 69.2591L89.7648 70.2686L90.7743 73.4975L94.0032 72.4881L92.9938 69.2591Z" fill="black"/>
</g>
<path d="M97.6067 155.892C98.7253 156.041 99.6564 156.398 100.4 156.962C101.138 157.53 101.67 158.255 101.995 159.135C102.315 160.02 102.403 161.007 102.258 162.098C102.112 163.194 101.77 164.124 101.231 164.89C100.687 165.66 99.9842 166.22 99.1238 166.572C98.2581 166.927 97.2659 167.031 96.1473 166.882C95.0287 166.734 94.1002 166.375 93.362 165.807C92.6184 165.242 92.0867 164.518 91.7667 163.633C91.4414 162.753 91.3515 161.765 91.497 160.669C91.6419 159.578 91.9865 158.648 92.5309 157.878C93.07 157.113 93.7724 156.552 94.6381 156.197C95.4985 155.845 96.4881 155.744 97.6067 155.892ZM97.2461 158.448C96.8394 158.394 96.4784 158.473 96.1633 158.685C95.8482 158.898 95.5872 159.216 95.3804 159.64C95.1689 160.063 95.0245 160.566 94.9472 161.149C94.8686 161.74 94.8761 162.268 94.9697 162.732C95.0587 163.196 95.2276 163.571 95.4764 163.858C95.7253 164.145 96.0531 164.315 96.4598 164.369C96.8805 164.425 97.253 164.348 97.5773 164.137C97.897 163.925 98.1626 163.608 98.3741 163.184C98.581 162.76 98.7237 162.252 98.8022 161.661C98.8796 161.078 98.8737 160.555 98.7848 160.092C98.6911 159.628 98.5176 159.252 98.2642 158.964C98.0061 158.676 97.6668 158.504 97.2461 158.448Z" fill="black"/>
<path d="M85.9199 153.037C86.6536 153.337 87.2427 153.8 87.6873 154.425C88.1318 155.05 88.3779 155.816 88.4254 156.722C88.4729 157.628 88.2663 158.644 87.8055 159.771C87.3271 160.94 86.7479 161.827 86.0678 162.43C85.3877 163.034 84.6735 163.394 83.9253 163.511C83.1728 163.626 82.4491 163.542 81.7543 163.258C81.2321 163.044 80.8224 162.771 80.5254 162.438C80.2266 162.109 80.0138 161.755 79.8868 161.376C79.7599 160.996 79.6956 160.63 79.694 160.276L79.6293 160.25L77.5771 165.267L74.4114 163.972L79.8345 150.714L82.9678 151.996L82.3085 153.608L82.4056 153.647C82.6647 153.396 82.972 153.186 83.3274 153.019C83.6829 152.852 84.0798 152.763 84.518 152.751C84.9519 152.737 85.4192 152.832 85.9199 153.037ZM83.8104 155.053C83.4263 154.896 83.0542 154.87 82.694 154.974C82.3321 155.083 81.9965 155.306 81.6874 155.643C81.3782 155.98 81.1142 156.416 80.8953 156.952C80.6729 157.495 80.5547 157.994 80.5408 158.446C80.5226 158.897 80.6083 159.285 80.7981 159.61C80.9835 159.932 81.2682 160.172 81.6523 160.329C82.0451 160.49 82.4215 160.518 82.7817 160.413C83.1419 160.309 83.4735 160.089 83.7765 159.755C84.0753 159.419 84.3341 158.983 84.553 158.448C84.7719 157.913 84.8914 157.417 84.9114 156.962C84.9313 156.507 84.8526 156.114 84.675 155.785C84.4914 155.458 84.2032 155.214 83.8104 155.053Z" fill="black"/>
<path d="M71.31 142.931L62.1123 154.49L59.4633 152.382L60.6086 150.943L60.5265 150.878C60.2138 151.046 59.8628 151.169 59.4734 151.246C59.0803 151.321 58.6674 151.308 58.2345 151.208C57.7952 151.109 57.3547 150.883 56.9132 150.532C56.3294 150.068 55.9058 149.48 55.6425 148.77C55.3755 148.057 55.3392 147.257 55.5335 146.368C55.7278 145.48 56.2183 144.542 57.0051 143.553C57.7628 142.6 58.5486 141.924 59.3625 141.522C60.1727 141.118 60.9609 140.959 61.7272 141.044C62.4899 141.127 63.1814 141.415 63.8017 141.908C64.225 142.245 64.5365 142.606 64.7364 142.992C64.9362 143.377 65.0519 143.767 65.0835 144.162C65.1115 144.553 65.079 144.924 64.986 145.273L65.0407 145.316L68.6335 140.801L71.31 142.931ZM62.8352 148.201C63.1952 147.748 63.4486 147.306 63.5953 146.875C63.7383 146.44 63.7689 146.039 63.6871 145.67C63.5988 145.301 63.3922 144.988 63.0675 144.73C62.7391 144.468 62.3874 144.337 62.0123 144.337C61.6344 144.34 61.2535 144.463 60.8696 144.706C60.4821 144.946 60.1083 145.292 59.7483 145.744C59.3883 146.197 59.1364 146.637 58.9926 147.065C58.8452 147.49 58.8138 147.885 58.8985 148.25C58.9796 148.613 59.1861 148.926 59.5182 149.19C59.8466 149.452 60.1969 149.584 60.569 149.588C60.9411 149.593 61.3213 149.478 61.7096 149.245C62.0942 149.008 62.4694 148.66 62.8352 148.201Z" fill="black"/>
<path d="M58.6236 133.859L50.6746 141.087L48.4395 138.629L49.8886 137.311L49.8133 137.228C49.1571 137.56 48.5524 137.678 47.9991 137.583C47.4423 137.49 46.9663 137.227 46.5711 136.792C46.4644 136.675 46.3633 136.546 46.2676 136.406C46.1684 136.269 46.0858 136.133 46.0196 135.998L48.219 133.998C48.2874 134.157 48.3989 134.345 48.5536 134.564C48.7051 134.779 48.8499 134.963 48.9879 135.114C49.2608 135.415 49.5743 135.624 49.9285 135.743C50.276 135.862 50.6316 135.882 50.9951 135.804C51.352 135.725 51.6892 135.542 52.0066 135.253L56.3227 131.329L58.6236 133.859Z" fill="black"/>
<path d="M49.963 122.016C50.3881 123.061 50.5396 124.047 50.4176 124.972C50.2895 125.895 49.9236 126.716 49.3198 127.435C48.7099 128.151 47.8953 128.716 46.8759 129.13C45.8522 129.547 44.8742 129.71 43.942 129.621C43.0037 129.53 42.1688 129.197 41.4373 128.624C40.6997 128.048 40.1184 127.237 39.6934 126.192C39.2683 125.146 39.1198 124.162 39.2479 123.239C39.3699 122.314 39.7359 121.493 40.3457 120.777C40.9495 120.058 41.7632 119.491 42.7869 119.075C43.8063 118.66 44.7852 118.499 45.7235 118.59C46.6557 118.679 47.4906 119.012 48.2282 119.588C48.9597 120.161 49.5379 120.971 49.963 122.016ZM47.5643 122.969C47.4097 122.589 47.1622 122.314 46.8218 122.146C46.4814 121.977 46.0758 121.908 45.6049 121.938C45.1323 121.964 44.6238 122.088 44.0796 122.309C43.5267 122.534 43.0719 122.802 42.7151 123.113C42.3567 123.42 42.1144 123.753 41.9883 124.111C41.8622 124.469 41.8764 124.839 42.031 125.219C42.1908 125.612 42.4427 125.897 42.7866 126.074C43.1287 126.247 43.5361 126.321 44.0088 126.295C44.4796 126.264 44.9915 126.137 45.5444 125.912C46.0887 125.69 46.54 125.426 46.8985 125.119C47.2552 124.808 47.4957 124.471 47.6201 124.109C47.7427 123.742 47.7241 123.362 47.5643 122.969Z" fill="black"/>
<path d="M46.6924 113.24L32.4886 115.097L32.0453 111.705L37.4203 111.003L37.4113 110.933C37.0695 110.837 36.7317 110.681 36.3979 110.466C36.0635 110.247 35.7756 109.95 35.534 109.577C35.2873 109.201 35.1273 108.732 35.0542 108.173C34.9575 107.433 35.0614 106.717 35.3658 106.023C35.6695 105.325 36.2 104.724 36.9572 104.221C37.7144 103.718 38.7194 103.384 39.9725 103.22C41.1792 103.063 42.2146 103.122 43.0785 103.4C43.9418 103.673 44.6192 104.106 45.1107 104.7C45.6016 105.29 45.8984 105.977 46.0011 106.763C46.0712 107.3 46.0441 107.776 45.9197 108.192C45.7954 108.608 45.6074 108.969 45.3558 109.274C45.1036 109.575 44.8227 109.819 44.5132 110.005L44.5268 110.109L46.2537 109.884L46.6924 113.24ZM40.9318 110.614C41.5051 110.539 41.9945 110.398 42.3999 110.19C42.8048 109.977 43.106 109.709 43.3038 109.387C43.4963 109.061 43.5656 108.692 43.5119 108.281C43.4575 107.865 43.2957 107.526 43.0264 107.265C42.7525 107.005 42.3932 106.828 41.9485 106.736C41.5032 106.639 40.9939 106.628 40.4206 106.703C39.8472 106.778 39.3602 106.919 38.9593 107.127C38.5579 107.329 38.2607 107.592 38.0676 107.913C37.8738 108.23 37.8045 108.599 37.8595 109.02C37.9139 109.436 38.0734 109.775 38.338 110.036C38.6026 110.298 38.9556 110.48 39.3969 110.582C39.8376 110.68 40.3492 110.69 40.9318 110.614Z" fill="black"/>
<path d="M31.6057 93.048L45.9037 93.9207L45.6953 97.3346L31.3973 96.4619L31.6057 93.048Z" fill="black"/>
<path d="M48.077 83.8296C47.7418 84.9022 47.2412 85.762 46.575 86.4087C45.9058 87.0497 45.1119 87.4563 44.1934 87.6285C43.2719 87.7949 42.2658 87.7078 41.1754 87.3671C40.1161 87.0361 39.2557 86.5377 38.5942 85.8718C37.9282 85.2045 37.4938 84.4215 37.2909 83.5228C37.0837 82.6226 37.1413 81.6563 37.4639 80.6237C37.692 79.8938 38.0141 79.2616 38.4302 78.7272C38.8463 78.1928 39.3457 77.7748 39.9284 77.4733C40.5112 77.1717 41.1679 77.0007 41.8987 76.9603C42.625 76.9186 43.4087 77.0291 44.2499 77.2919L45.0644 77.5464L42.2798 86.4591L40.3838 85.8667L42.2193 79.9917C41.8708 79.8876 41.5357 79.8733 41.2142 79.9487C40.8926 80.0241 40.6123 80.1784 40.3734 80.4115C40.1314 80.6388 39.9541 80.9327 39.8415 81.2932C39.7274 81.6582 39.7076 82.011 39.7819 82.3518C39.8517 82.6912 40.0004 82.9892 40.228 83.2459C40.4511 83.5013 40.7371 83.6883 41.0859 83.8071L43.0153 84.4099C43.4337 84.5406 43.8266 84.573 44.1941 84.507C44.5571 84.4397 44.8726 84.2818 45.1408 84.0334C45.4089 83.785 45.6083 83.4516 45.739 83.0332C45.8294 82.7439 45.8714 82.4688 45.865 82.2079C45.8586 81.947 45.8039 81.7076 45.701 81.4898C45.598 81.272 45.4463 81.0854 45.2457 80.9299L46.2691 77.9594C46.9022 78.294 47.4019 78.7506 47.7683 79.3291C48.1317 79.9018 48.3449 80.5718 48.4081 81.339C48.4669 82.1048 48.3565 82.935 48.077 83.8296Z" fill="black"/>
<path d="M51.4699 74.7007L42.3028 69.0983L43.9989 66.3231L45.6819 67.3517L45.7439 67.2502C45.3036 66.7188 45.0609 66.1279 45.0158 65.4773C44.9707 64.8268 45.1403 64.1872 45.5244 63.5585C45.9135 62.9219 46.4097 62.4765 47.0132 62.2223C47.6167 61.9682 48.2306 61.9472 48.8551 62.1594L48.9134 62.0639C48.4729 61.5597 48.2415 60.9592 48.2192 60.2625C48.1929 59.5633 48.3864 58.8755 48.7998 58.1991C49.3298 57.3318 50.0387 56.7977 50.9265 56.597C51.8102 56.3939 52.7355 56.5878 53.7023 57.1786L59.8734 60.95L58.0899 63.8684L52.5872 60.5056C52.1297 60.2259 51.7098 60.1306 51.3276 60.2194C50.9414 60.3058 50.6341 60.536 50.4055 60.9101C50.1599 61.3119 50.0979 61.7085 50.2195 62.0997C50.3395 62.4846 50.6183 62.8107 51.056 63.0782L56.5288 66.4228L54.8146 69.2278L49.2821 65.8468C48.8563 65.5866 48.4496 65.4965 48.0619 65.5765C47.6742 65.6565 47.3648 65.8855 47.1338 66.2635C46.9782 66.5181 46.9025 66.7806 46.9067 67.051C46.9069 67.3189 46.9844 67.5766 47.1391 67.8242C47.2963 68.0678 47.526 68.282 47.8284 68.4668L53.2535 71.7822L51.4699 74.7007Z" fill="black"/>
<path d="M65.6996 56.4361C65.1593 56.8579 64.6093 57.1423 64.0497 57.2892C63.4908 57.4296 62.9467 57.4107 62.4172 57.2325C61.8885 57.0477 61.4061 56.676 60.97 56.1172C60.6027 55.6467 60.3756 55.1852 60.2885 54.7326C60.2014 54.28 60.2242 53.8393 60.3568 53.4105C60.4894 52.9817 60.7048 52.568 61.0031 52.1696C61.2985 51.7675 61.6469 51.3802 62.0483 51.0078C62.4954 50.5878 62.8473 50.2392 63.1041 49.9619C63.358 49.6809 63.5152 49.4428 63.5758 49.2476C63.6373 49.0459 63.6005 48.8587 63.4657 48.6859L63.4442 48.6583C63.2233 48.3753 62.9551 48.2326 62.6398 48.2303C62.3245 48.228 62.0014 48.3559 61.6706 48.6141C61.314 48.8924 61.0876 49.1934 60.9912 49.5171C60.8948 49.8407 60.9234 50.1615 61.0769 50.4794L58.5213 52.3321C58.1932 51.7601 58.0239 51.1529 58.0134 50.5104C58.0037 49.8614 58.1768 49.2117 58.5327 48.5612C58.8894 47.9042 59.4464 47.2802 60.2036 46.6892C60.744 46.2674 61.2922 45.943 61.8485 45.7159C62.4018 45.4851 62.9423 45.359 63.4698 45.3377C63.9945 45.3126 64.485 45.403 64.9413 45.6087C65.4013 45.8116 65.8064 46.1373 66.1564 46.5857L70.6493 52.3421L68.113 54.3217L67.1921 53.1418L67.1259 53.1934C67.199 53.5978 67.1953 53.991 67.115 54.3731C67.0384 54.7524 66.8807 55.115 66.6421 55.461C66.4071 55.8041 66.0929 56.1292 65.6996 56.4361ZM65.155 54.0219C65.4454 53.7952 65.6605 53.5327 65.8003 53.2344C65.9437 52.9331 66.005 52.6251 65.984 52.3102C65.9601 51.9916 65.8406 51.6945 65.6254 51.4188L64.9971 50.6138C64.9515 50.7145 64.8864 50.8244 64.802 50.9436C64.7212 51.0599 64.6279 51.1829 64.5222 51.3127C64.4165 51.4426 64.3043 51.5716 64.1855 51.6998C64.0667 51.828 63.952 51.9501 63.8414 52.066C63.6193 52.3044 63.4512 52.5362 63.3371 52.7613C63.2266 52.9836 63.1767 53.2 63.1873 53.4106C63.1987 53.6146 63.2761 53.8086 63.4195 53.9924C63.6376 54.2717 63.9032 54.4075 64.2165 54.3996C64.5334 54.3888 64.8463 54.2629 65.155 54.0219Z" fill="black"/>
<path d="M106.825 43.998C106.055 43.809 105.404 43.4379 104.872 42.8849C104.341 42.3318 103.985 41.6106 103.805 40.7213C103.625 39.832 103.68 38.7964 103.97 37.6145C104.271 36.3873 104.714 35.4252 105.298 34.7284C105.882 34.0316 106.535 33.5702 107.258 33.3444C107.986 33.1197 108.714 33.0968 109.443 33.2758C109.991 33.4104 110.436 33.6206 110.779 33.9064C111.123 34.1877 111.385 34.5066 111.567 34.8633C111.748 35.2199 111.865 35.5728 111.919 35.922L111.987 35.9387L113.279 30.6744L116.601 31.49L113.185 45.4014L109.898 44.5941L110.313 42.9027L110.211 42.8777C109.992 43.1648 109.718 43.417 109.391 43.6344C109.064 43.8518 108.685 43.9987 108.253 44.0751C107.826 44.1527 107.35 44.127 106.825 43.998ZM108.615 41.6935C109.018 41.7925 109.39 41.7638 109.731 41.6074C110.073 41.4465 110.372 41.1767 110.628 40.7979C110.884 40.4191 111.081 39.9489 111.219 39.3874C111.359 38.8168 111.403 38.3065 111.35 37.8566C111.302 37.4079 111.16 37.0369 110.925 36.7439C110.694 36.4519 110.377 36.2565 109.974 36.1575C109.562 36.0563 109.186 36.0839 108.845 36.2403C108.504 36.3967 108.208 36.6625 107.957 37.0379C107.711 37.4144 107.519 37.8835 107.381 38.445C107.244 39.0065 107.198 39.5139 107.245 39.9672C107.292 40.4206 107.428 40.7972 107.652 41.097C107.882 41.3935 108.203 41.5924 108.615 41.6935Z" fill="black"/>
<path d="M120.388 48.4705C119.396 47.9324 118.654 47.2671 118.161 46.4744C117.674 45.6799 117.436 44.8134 117.446 43.8748C117.463 42.9343 117.734 41.9805 118.259 41.0132C118.785 40.0418 119.437 39.2947 120.214 38.7719C120.998 38.2472 121.854 37.9743 122.783 37.9531C123.719 37.9301 124.682 38.1877 125.674 38.7257C126.666 39.2638 127.405 39.9301 127.892 40.7246C128.385 41.5172 128.623 42.3838 128.607 43.3242C128.596 44.2628 128.327 45.2178 127.8 46.1892C127.276 47.1565 126.622 47.9025 125.838 48.4272C125.062 48.95 124.205 49.2229 123.27 49.2459C122.341 49.267 121.38 49.0086 120.388 48.4705ZM121.637 46.2118C121.998 46.4075 122.363 46.4625 122.733 46.3768C123.103 46.2911 123.461 46.087 123.805 45.7647C124.154 45.4446 124.469 45.0263 124.749 44.5099C125.033 43.9852 125.215 43.4895 125.293 43.0226C125.375 42.558 125.351 42.1472 125.221 41.7903C125.091 41.4333 124.846 41.157 124.485 40.9613C124.112 40.759 123.737 40.6985 123.358 40.7797C122.984 40.8632 122.623 41.065 122.274 41.3851C121.93 41.7075 121.615 42.1309 121.33 42.6556C121.05 43.172 120.869 43.6626 120.787 44.1272C120.708 44.594 120.736 45.0071 120.87 45.3662C121.009 45.7276 121.264 46.0095 121.637 46.2118Z" fill="black"/>
<path d="M136.309 57.8305L144.66 51.0719L146.751 53.6545L145.228 54.8865L145.299 54.9735C145.973 54.6799 146.583 54.5967 147.13 54.7239C147.681 54.8483 148.141 55.1388 148.51 55.5955C148.61 55.7187 148.704 55.8529 148.791 55.9981C148.882 56.1403 148.957 56.2808 149.015 56.4196L146.705 58.2896C146.645 58.1276 146.545 57.933 146.403 57.7058C146.264 57.4823 146.13 57.2908 146.001 57.1313C145.746 56.816 145.445 56.5886 145.098 56.4493C144.758 56.3107 144.404 56.2701 144.037 56.3275C143.676 56.3856 143.329 56.5496 142.995 56.8195L138.461 60.4892L136.309 57.8305Z" fill="black"/>
<path d="M152.463 61.2605L154.422 64.0645L145.247 70.4727C144.521 70.98 143.839 71.2341 143.203 71.235C142.569 71.2397 141.97 71.0379 141.406 70.6297C140.843 70.2215 140.304 69.6505 139.792 68.9165C139.722 68.8171 139.659 68.7221 139.601 68.6315C139.544 68.5409 139.481 68.4427 139.412 68.3368L141.54 66.8509C141.58 66.925 141.617 66.9902 141.651 67.0464C141.684 67.1026 141.72 67.1574 141.757 67.211C142.027 67.5971 142.286 67.8139 142.536 67.8616C142.781 67.9119 143.051 67.8342 143.346 67.6286L152.463 61.2605ZM154.467 61.9427C154.192 61.549 154.085 61.1199 154.148 60.6554C154.214 60.1883 154.433 59.8253 154.803 59.5663C155.17 59.3099 155.583 59.2324 156.04 59.3338C156.501 59.4324 156.87 59.6786 157.145 60.0724C157.422 60.4699 157.527 60.9004 157.458 61.3637C157.396 61.8281 157.181 62.1885 156.814 62.4448C156.443 62.7038 156.027 62.784 155.566 62.6854C155.111 62.5879 154.744 62.3403 154.467 61.9427Z" fill="black"/>
<path d="M150.657 78.7143C150.236 77.6723 150.078 76.69 150.184 75.7675C150.295 74.8475 150.651 74.0299 151.253 73.3144C151.86 72.6016 152.693 72.0313 153.752 71.6036C154.782 71.1881 155.763 71.0282 156.697 71.1239C157.635 71.2179 158.467 71.5481 159.194 72.1147C159.925 72.6795 160.493 73.4634 160.898 74.4666C161.184 75.1757 161.335 75.8688 161.352 76.5458C161.369 77.2229 161.248 77.8628 160.988 78.4654C160.729 79.068 160.329 79.6166 159.79 80.111C159.254 80.6037 158.578 81.015 157.761 81.345L156.97 81.6644L153.474 73.0059L155.316 72.2622L157.62 77.9697C157.956 77.8292 158.224 77.6279 158.425 77.3658C158.626 77.1036 158.745 76.8067 158.782 76.4749C158.825 76.1457 158.776 75.806 158.634 75.4558C158.491 75.1012 158.283 74.8157 158.009 74.5993C157.74 74.3811 157.436 74.2448 157.098 74.1905C156.763 74.1344 156.423 74.171 156.078 74.3003L154.204 75.057C153.797 75.2211 153.473 75.4452 153.231 75.7291C152.993 76.0113 152.849 76.3334 152.799 76.6955C152.749 77.0576 152.806 77.4419 152.97 77.8483C153.083 78.1294 153.225 78.3688 153.396 78.5665C153.566 78.7643 153.76 78.9147 153.978 79.0179C154.195 79.1211 154.431 79.1693 154.685 79.1624L155.776 82.1086C155.074 82.2511 154.398 82.2148 153.748 81.9995C153.104 81.7869 152.515 81.4039 151.98 80.8506C151.449 80.2955 151.008 79.5834 150.657 78.7143Z" fill="black"/>
<path d="M162.788 97.177L162.305 94.0726C162.523 94.0118 162.708 93.8987 162.861 93.7334C163.018 93.5675 163.131 93.3627 163.198 93.119C163.271 92.8793 163.288 92.6092 163.25 92.3085C163.199 91.9154 163.078 91.5901 162.885 91.3328C162.693 91.0801 162.463 90.9732 162.195 91.0122C161.986 91.0343 161.816 91.1406 161.686 91.3313C161.556 91.5267 161.473 91.8546 161.438 92.3151L161.313 94.4184C161.246 95.5083 161.009 96.3424 160.604 96.9209C160.199 97.504 159.609 97.8477 158.832 97.9519C158.101 98.041 157.437 97.9051 156.841 97.5443C156.245 97.1882 155.75 96.6594 155.354 95.9579C154.963 95.2558 154.707 94.4284 154.585 93.4756C154.39 91.9539 154.548 90.7137 155.06 89.7549C155.577 88.8001 156.354 88.1927 157.393 87.9327L157.906 91.2729C157.527 91.3967 157.255 91.6266 157.091 91.9626C156.928 92.2985 156.877 92.707 156.938 93.188C156.994 93.6228 157.12 93.9662 157.317 94.2184C157.514 94.4705 157.747 94.5817 158.016 94.5519C158.256 94.5165 158.434 94.3855 158.551 94.159C158.672 93.9319 158.746 93.591 158.772 93.1363L158.888 91.2317C158.945 90.1383 159.201 89.2969 159.657 88.7073C160.117 88.117 160.755 87.7721 161.569 87.6723C162.281 87.5764 162.914 87.6881 163.467 88.0074C164.025 88.326 164.483 88.822 164.842 89.4953C165.201 90.1685 165.442 90.9862 165.566 91.9482C165.751 93.3912 165.594 94.5678 165.094 95.478C164.6 96.3876 163.831 96.9539 162.788 97.177ZM169.736 90.102L168.303 91.682L170.089 92.8562L170.453 95.6938L170.363 95.7053L166.871 93.1066L166.559 90.6715L169.282 87.2691L169.372 87.2575L169.736 90.102Z" fill="black"/>
<path d="M154.773 108.189C154.918 107.074 155.262 106.141 155.806 105.389C156.354 104.641 157.065 104.103 157.94 103.775C158.819 103.451 159.825 103.363 160.958 103.51C162.058 103.652 162.992 103.994 163.759 104.535C164.531 105.077 165.094 105.773 165.449 106.623C165.809 107.474 165.92 108.435 165.781 109.508C165.683 110.267 165.475 110.945 165.158 111.543C164.841 112.142 164.421 112.64 163.899 113.038C163.378 113.436 162.761 113.718 162.048 113.884C161.34 114.051 160.549 114.078 159.675 113.965L158.828 113.855L160.027 104.595L161.997 104.85L161.207 110.954C161.568 110.996 161.901 110.952 162.204 110.823C162.508 110.693 162.757 110.492 162.952 110.221C163.151 109.955 163.275 109.635 163.324 109.261C163.373 108.881 163.331 108.53 163.199 108.208C163.071 107.886 162.873 107.618 162.605 107.404C162.341 107.191 162.027 107.057 161.663 107L159.658 106.741C159.223 106.684 158.831 106.721 158.48 106.849C158.134 106.978 157.851 107.188 157.63 107.48C157.409 107.771 157.27 108.134 157.214 108.568C157.175 108.869 157.181 109.147 157.233 109.403C157.284 109.659 157.379 109.885 157.519 110.082C157.658 110.278 157.839 110.436 158.064 110.554L157.57 113.657C156.889 113.437 156.318 113.074 155.857 112.568C155.4 112.067 155.074 111.444 154.878 110.699C154.688 109.955 154.653 109.118 154.773 108.189Z" fill="black"/>
<path d="M157.748 122.208L152.069 119.907L153.354 116.737L163.311 120.772L162.089 123.786L160.261 123.045L160.217 123.155C160.737 123.623 161.062 124.192 161.192 124.864C161.327 125.537 161.245 126.241 160.948 126.976C160.664 127.676 160.26 128.219 159.736 128.606C159.215 128.998 158.616 129.223 157.938 129.281C157.263 129.345 156.553 129.223 155.807 128.915L149.461 126.344L150.745 123.174L156.469 125.493C157.021 125.722 157.51 125.757 157.937 125.597C158.362 125.443 158.676 125.115 158.879 124.613C159.014 124.28 159.059 123.957 159.016 123.642C158.975 123.334 158.848 123.056 158.636 122.809C158.423 122.567 158.127 122.366 157.748 122.208Z" fill="black"/>
<path d="M155.113 137.217L153.067 139.958L144.099 133.263C143.389 132.733 142.934 132.166 142.733 131.562C142.529 130.962 142.532 130.33 142.743 129.667C142.953 129.003 143.326 128.313 143.861 127.595C143.934 127.498 144.004 127.408 144.072 127.325C144.14 127.242 144.213 127.151 144.292 127.053L146.372 128.605C146.314 128.667 146.264 128.723 146.221 128.772C146.178 128.822 146.137 128.872 146.098 128.925C145.817 129.302 145.692 129.617 145.725 129.868C145.755 130.117 145.914 130.349 146.201 130.564L155.113 137.217ZM155.096 139.333C155.383 138.948 155.757 138.713 156.217 138.626C156.681 138.542 157.095 138.635 157.457 138.906C157.816 139.173 158.019 139.54 158.067 140.006C158.118 140.475 158 140.902 157.713 141.287C157.423 141.676 157.047 141.91 156.586 141.991C156.125 142.077 155.716 141.987 155.357 141.719C154.994 141.449 154.787 141.079 154.736 140.61C154.686 140.147 154.805 139.722 155.096 139.333Z" fill="black"/>
<path d="M138.162 140.05C138.698 139.623 139.245 139.333 139.803 139.18C140.361 139.033 140.905 139.047 141.436 139.219C141.967 139.398 142.453 139.765 142.895 140.319C143.267 140.786 143.499 141.245 143.591 141.697C143.683 142.148 143.665 142.589 143.537 143.019C143.409 143.449 143.198 143.865 142.904 144.267C142.612 144.672 142.268 145.063 141.871 145.44C141.428 145.864 141.08 146.217 140.826 146.497C140.575 146.78 140.42 147.02 140.362 147.216C140.303 147.418 140.341 147.605 140.478 147.776L140.5 147.804C140.724 148.084 140.993 148.224 141.309 148.223C141.624 148.222 141.946 148.091 142.274 147.829C142.627 147.547 142.851 147.244 142.943 146.919C143.036 146.595 143.004 146.274 142.848 145.958L145.384 144.078C145.718 144.647 145.893 145.252 145.911 145.894C145.927 146.543 145.761 147.195 145.412 147.849C145.062 148.51 144.512 149.14 143.761 149.739C143.225 150.166 142.68 150.496 142.126 150.729C141.575 150.966 141.036 151.098 140.509 151.125C139.985 151.155 139.493 151.07 139.035 150.869C138.573 150.671 138.164 150.35 137.809 149.905L133.256 144.196L135.771 142.19L136.705 143.36L136.77 143.308C136.693 142.904 136.693 142.511 136.769 142.128C136.841 141.748 136.995 141.384 137.23 141.035C137.462 140.69 137.772 140.361 138.162 140.05ZM138.732 142.459C138.444 142.688 138.232 142.953 138.095 143.253C137.955 143.556 137.897 143.864 137.922 144.179C137.949 144.497 138.071 144.793 138.289 145.066L138.926 145.865C138.971 145.764 139.035 145.653 139.118 145.533C139.197 145.416 139.289 145.292 139.394 145.161C139.498 145.03 139.609 144.9 139.726 144.77C139.844 144.641 139.957 144.518 140.067 144.4C140.286 144.16 140.452 143.926 140.564 143.7C140.672 143.476 140.719 143.26 140.706 143.049C140.693 142.845 140.613 142.652 140.468 142.47C140.247 142.193 139.98 142.06 139.667 142.071C139.35 142.085 139.039 142.214 138.732 142.459Z" fill="black"/>
<path d="M85.1274 45.525L82.1574 42.5654L77.7596 42.0659L81.0898 39.1504L81.8452 35.0261L84.8152 37.9857L89.213 38.4853L85.8828 41.4007L85.1274 45.525Z" fill="black"/>
<path d="M122.425 164.831L119.455 161.871L115.057 161.372L118.388 158.456L119.143 154.332L122.113 157.291L126.511 157.791L123.181 160.706L122.425 164.831Z" fill="black"/>
<defs>
<clipPath id="clip0_504_8281">
<rect width="57.4622" height="57.4622" fill="white" transform="translate(63.9536 78.3379) rotate(-17.3605)"/>
</clipPath>
</defs>
</svg>
