<svg width="221" height="221" viewBox="0 0 221 221" fill="none" xmlns="http://www.w3.org/2000/svg">
<circle cx="110.247" cy="110.112" r="80.5311" transform="rotate(29.3922 110.247 110.112)" fill="#C2E64A"/>
<g clip-path="url(#clip0_821_32972)">
<path d="M101.485 130.152L98.5236 128.484L96.8555 131.446L99.8168 133.114L101.485 130.152Z" fill="black"/>
<path d="M120.898 137.195L117.937 135.527L116.269 138.489L119.23 140.157L120.898 137.195Z" fill="black"/>
<path d="M106.104 128.862L103.143 127.194L101.475 130.156L104.436 131.824L106.104 128.862Z" fill="black"/>
<path d="M103.149 127.197L100.188 125.529L98.52 128.491L101.481 130.159L103.149 127.197Z" fill="black"/>
<path d="M100.188 125.529L97.2268 123.861L95.5588 126.823L98.52 128.491L100.188 125.529Z" fill="black"/>
<path d="M85.3943 117.196L82.4331 115.528L80.765 118.49L83.7263 120.158L85.3943 117.196Z" fill="black"/>
<path d="M125.527 135.902L122.566 134.234L120.898 137.196L123.859 138.864L125.527 135.902Z" fill="black"/>
<path d="M122.566 134.234L119.605 132.566L117.937 135.528L120.898 137.196L122.566 134.234Z" fill="black"/>
<path d="M119.611 132.569L116.65 130.901L114.982 133.863L117.943 135.531L119.611 132.569Z" fill="black"/>
<path d="M107.772 125.9L104.811 124.232L103.143 127.194L106.104 128.862L107.772 125.9Z" fill="black"/>
<path d="M101.856 122.568L98.8949 120.9L97.2268 123.862L100.188 125.53L101.856 122.568Z" fill="black"/>
<path d="M90.0237 115.903L87.0624 114.235L85.3943 117.197L88.3556 118.865L90.0237 115.903Z" fill="black"/>
<path d="M87.0624 114.235L84.1011 112.567L82.4331 115.529L85.3943 117.197L87.0624 114.235Z" fill="black"/>
<path d="M84.1074 112.57L81.1461 110.902L79.4781 113.864L82.4394 115.532L84.1074 112.57Z" fill="black"/>
<path d="M127.192 132.947L124.231 131.279L122.563 134.241L125.524 135.909L127.192 132.947Z" fill="black"/>
<path d="M121.276 129.614L118.314 127.946L116.646 130.908L119.608 132.576L121.276 129.614Z" fill="black"/>
<path d="M112.398 124.614L109.437 122.946L107.769 125.908L110.73 127.576L112.398 124.614Z" fill="black"/>
<path d="M109.437 122.946L106.476 121.278L104.808 124.24L107.769 125.908L109.437 122.946Z" fill="black"/>
<path d="M106.482 121.281L103.521 119.613L101.853 122.575L104.814 124.243L106.482 121.281Z" fill="black"/>
<path d="M103.521 119.613L100.559 117.945L98.8914 120.907L101.853 122.575L103.521 119.613Z" fill="black"/>
<path d="M100.566 117.949L97.6044 116.281L95.9364 119.243L98.8976 120.911L100.566 117.949Z" fill="black"/>
<path d="M91.6882 112.948L88.7269 111.28L87.0589 114.242L90.0201 115.91L91.6882 112.948Z" fill="black"/>
<path d="M85.7719 109.615L82.8107 107.947L81.1426 110.909L84.1039 112.577L85.7719 109.615Z" fill="black"/>
<path d="M131.815 131.65L128.854 129.982L127.186 132.944L130.147 134.612L131.815 131.65Z" fill="black"/>
<path d="M128.86 129.986L125.899 128.318L124.231 131.28L127.192 132.948L128.86 129.986Z" fill="black"/>
<path d="M125.899 128.317L122.938 126.649L121.269 129.611L124.231 131.279L125.899 128.317Z" fill="black"/>
<path d="M122.944 126.653L119.983 124.985L118.314 127.947L121.276 129.615L122.944 126.653Z" fill="black"/>
<path d="M119.983 124.985L117.021 123.317L115.353 126.279L118.314 127.947L119.983 124.985Z" fill="black"/>
<path d="M117.021 123.317L114.06 121.649L112.392 124.611L115.353 126.279L117.021 123.317Z" fill="black"/>
<path d="M99.2725 113.319L96.3112 111.651L94.6432 114.613L97.6044 116.281L99.2725 113.319Z" fill="black"/>
<path d="M96.3112 111.651L93.3499 109.983L91.6819 112.945L94.6432 114.613L96.3112 111.651Z" fill="black"/>
<path d="M93.3563 109.987L90.395 108.319L88.7269 111.281L91.6882 112.949L93.3563 109.987Z" fill="black"/>
<path d="M90.395 108.318L87.4337 106.65L85.7657 109.612L88.7269 111.28L90.395 108.318Z" fill="black"/>
<path d="M87.44 106.654L84.4787 104.986L82.8107 107.948L85.7719 109.616L87.44 106.654Z" fill="black"/>
<path d="M84.4787 104.986L81.5175 103.318L79.8494 106.28L82.8107 107.948L84.4787 104.986Z" fill="black"/>
<path d="M133.483 128.69L130.522 127.021L128.854 129.983L131.815 131.651L133.483 128.69Z" fill="black"/>
<path d="M118.689 120.356L115.728 118.688L114.06 121.649L117.021 123.317L118.689 120.356Z" fill="black"/>
<path d="M112.773 117.024L109.812 115.355L108.144 118.317L111.105 119.985L112.773 117.024Z" fill="black"/>
<path d="M106.857 113.691L103.896 112.022L102.227 114.984L105.189 116.652L106.857 113.691Z" fill="black"/>
<path d="M100.941 110.358L97.9793 108.69L96.3112 111.652L99.2725 113.32L100.941 110.358Z" fill="black"/>
<path d="M86.1468 102.025L83.1855 100.357L81.5175 103.319L84.4787 104.987L86.1468 102.025Z" fill="black"/>
<path d="M132.193 124.069L129.231 122.401L127.563 125.363L130.525 127.031L132.193 124.069Z" fill="black"/>
<path d="M129.231 122.401L126.27 120.733L124.602 123.695L127.563 125.363L129.231 122.401Z" fill="black"/>
<path d="M120.354 117.401L117.393 115.733L115.725 118.695L118.686 120.363L120.354 117.401Z" fill="black"/>
<path d="M102.605 107.403L99.6438 105.735L97.9757 108.697L100.937 110.365L102.605 107.403Z" fill="black"/>
<path d="M93.7275 102.402L90.7663 100.734L89.0982 103.696L92.0595 105.364L93.7275 102.402Z" fill="black"/>
<path d="M90.7726 100.738L87.8113 99.0703L86.1433 102.032L89.1045 103.7L90.7726 100.738Z" fill="black"/>
<path d="M130.899 119.441L127.938 117.772L126.27 120.734L129.231 122.402L130.899 119.441Z" fill="black"/>
<path d="M127.944 117.775L124.983 116.107L123.315 119.069L126.276 120.737L127.944 117.775Z" fill="black"/>
<path d="M122.022 114.44L119.061 112.771L117.393 115.733L120.354 117.401L122.022 114.44Z" fill="black"/>
<path d="M111.483 112.404L108.521 110.736L106.853 113.698L109.815 115.366L111.483 112.404Z" fill="black"/>
<path d="M113.151 109.442L110.189 107.774L108.521 110.736L111.483 112.404L113.151 109.442Z" fill="black"/>
<path d="M104.273 104.442L101.312 102.774L99.6438 105.736L102.605 107.404L104.273 104.442Z" fill="black"/>
<path d="M98.3569 101.109L95.3956 99.4414L93.7275 102.403L96.6888 104.071L98.3569 101.109Z" fill="black"/>
<path d="M95.3956 99.4415L92.4343 97.7734L90.7663 100.735L93.7275 102.403L95.3956 99.4415Z" fill="black"/>
<path d="M129.609 114.82L126.648 113.152L124.98 116.114L127.941 117.782L129.609 114.82Z" fill="black"/>
<path d="M126.648 113.152L123.686 111.484L122.018 114.446L124.98 116.114L126.648 113.152Z" fill="black"/>
<path d="M123.686 111.484L120.725 109.816L119.057 112.778L122.018 114.446L123.686 111.484Z" fill="black"/>
<path d="M105.938 101.487L102.976 99.8193L101.308 102.781L104.27 104.449L105.938 101.487Z" fill="black"/>
<path d="M102.976 99.8194L100.015 98.1514L98.347 101.113L101.308 102.781L102.976 99.8194Z" fill="black"/>
<path d="M100.021 98.1544L97.0601 96.4863L95.3921 99.4476L98.3533 101.116L100.021 98.1544Z" fill="black"/>
<path d="M128.316 110.191L125.354 108.523L123.686 111.485L126.648 113.153L128.316 110.191Z" fill="black"/>
<path d="M125.354 108.524L122.393 106.855L120.725 109.817L123.686 111.485L125.354 108.524Z" fill="black"/>
<path d="M116.483 103.526L113.522 101.858L111.854 104.82L114.815 106.488L116.483 103.526Z" fill="black"/>
<path d="M107.606 98.5255L104.644 96.8574L102.976 99.8187L105.938 101.487L107.606 98.5255Z" fill="black"/>
<path d="M104.644 96.8575L101.683 95.1895L100.015 98.1507L102.976 99.8188L104.644 96.8575Z" fill="black"/>
<path d="M127.019 105.568L124.058 103.9L122.39 106.862L125.351 108.53L127.019 105.568Z" fill="black"/>
<path d="M121.103 102.236L118.141 100.568L116.473 103.53L119.435 105.198L121.103 102.236Z" fill="black"/>
<path d="M115.186 98.9034L112.225 97.2354L110.557 100.197L113.518 101.865L115.186 98.9034Z" fill="black"/>
<path d="M109.27 95.5704L106.309 93.9023L104.641 96.8636L107.602 98.5317L109.27 95.5704Z" fill="black"/>
<path d="M128.687 102.608L125.726 100.939L124.058 103.901L127.019 105.569L128.687 102.608Z" fill="black"/>
<path d="M119.816 97.6104L116.855 95.9424L115.186 98.9037L118.148 100.572L119.816 97.6104Z" fill="black"/>
<path d="M110.938 92.6095L107.977 90.9414L106.309 93.9027L109.27 95.5707L110.938 92.6095Z" fill="black"/>
<path d="M130.355 99.6456L127.394 97.9775L125.726 100.939L128.687 102.607L130.355 99.6456Z" fill="black"/>
<path d="M112.606 89.6485L109.645 87.9805L107.977 90.9417L110.938 92.6098L112.606 89.6485Z" fill="black"/>
<path d="M129.065 95.0265L126.103 93.3584L124.435 96.3197L127.397 97.9877L129.065 95.0265Z" fill="black"/>
<path d="M117.232 88.3614L114.271 86.6934L112.603 89.6546L115.564 91.3227L117.232 88.3614Z" fill="black"/>
<path d="M130.733 92.0655L127.771 90.3975L126.103 93.3587L129.065 95.0268L130.733 92.0655Z" fill="black"/>
<path d="M127.771 90.3976L124.81 88.7295L123.142 91.6908L126.103 93.3588L127.771 90.3976Z" fill="black"/>
<path d="M124.816 88.7325L121.855 87.0645L120.187 90.0257L123.148 91.6938L124.816 88.7325Z" fill="black"/>
<path d="M121.855 87.0645L118.894 85.3965L117.226 88.3578L120.187 90.0258L121.855 87.0645Z" fill="black"/>
<path d="M118.9 85.4005L115.939 83.7324L114.271 86.6937L117.232 88.3618L118.9 85.4005Z" fill="black"/>
<path d="M129.436 87.4425L126.475 85.7744L124.807 88.7357L127.768 90.4037L129.436 87.4425Z" fill="black"/>
<path d="M126.481 85.7774L123.52 84.1094L121.852 87.0706L124.813 88.7387L126.481 85.7774Z" fill="black"/>
<path d="M123.52 84.1095L120.558 82.4414L118.89 85.4027L121.852 87.0707L123.52 84.1095Z" fill="black"/>
<path d="M128.149 82.8165L125.188 81.1484L123.52 84.1097L126.481 85.7778L128.149 82.8165Z" fill="black"/>
</g>
<path d="M81.4745 161.077L81.3347 165.287L83.9807 168.861L79.557 168.411L76.009 170.682L76.1488 166.472L73.5028 162.898L77.9266 163.348L81.4745 161.077Z" fill="black"/>
<path d="M144.093 49.9121L143.953 54.1221L146.599 57.6957L142.175 57.2462L138.627 59.5169L138.767 55.3068L136.121 51.7333L140.545 52.1827L144.093 49.9121Z" fill="black"/>
<path d="M54.608 108.558L43.8731 107.438L44.2195 104.118L46.1764 104.323L46.188 104.211C45.5002 103.941 45.007 103.567 44.7084 103.089C44.4052 102.609 44.2842 102.076 44.3454 101.489C44.362 101.331 44.3906 101.169 44.4314 101.004C44.4676 100.838 44.5141 100.685 44.5711 100.545L47.5414 100.855C47.4685 101.012 47.4019 101.222 47.3415 101.484C47.2817 101.741 47.2411 101.973 47.2197 102.178C47.1774 102.583 47.2301 102.958 47.3778 103.303C47.5213 103.643 47.7441 103.923 48.0461 104.143C48.344 104.358 48.7072 104.488 49.1359 104.533L54.9646 105.141L54.608 108.558Z" fill="black"/>
<path d="M45.5328 95.7626L46.1588 92.384L57.2136 94.4324C58.0888 94.5945 58.751 94.903 59.2003 95.3579C59.6505 95.8082 59.9283 96.379 60.0336 97.0703C60.139 97.7615 60.1097 98.5494 59.9459 99.4338C59.9237 99.5535 59.9005 99.6659 59.8762 99.771C59.852 99.8761 59.826 99.9904 59.7984 100.114L57.2351 99.639C57.2596 99.5578 57.2802 99.4853 57.2968 99.4217C57.3133 99.3581 57.3276 99.294 57.3395 99.2295C57.4257 98.7643 57.3979 98.4257 57.2562 98.2136C57.119 98.0024 56.8731 97.8639 56.5185 97.7982L45.5328 95.7626ZM44.6084 93.8476C44.5205 94.322 44.2883 94.7007 43.912 94.9835C43.531 95.2655 43.1171 95.3651 42.6703 95.2823C42.2281 95.2003 41.882 94.9599 41.6319 94.561C41.3772 94.1613 41.2939 93.7242 41.3818 93.2497C41.4705 92.7707 41.705 92.3925 42.0851 92.1151C42.4615 91.8323 42.8708 91.7319 43.313 91.8138C43.7598 91.8966 44.1105 92.1379 44.3652 92.5376C44.6161 92.9319 44.6972 93.3686 44.6084 93.8476Z" fill="black"/>
<path d="M60.6526 85.8274C60.1894 86.857 59.5867 87.6543 58.8445 88.2194C58.1 88.7782 57.2593 89.0884 56.3225 89.1498C55.3833 89.205 54.3904 88.9972 53.3437 88.5263C52.3269 88.0689 51.5286 87.4683 50.9488 86.7247C50.3648 85.979 50.0256 85.1458 49.9313 84.225C49.8327 83.3023 50.0064 82.3454 50.4523 81.3542C50.7675 80.6536 51.1647 80.0618 51.6439 79.5788C52.1232 79.0958 52.6716 78.7389 53.2891 78.5081C53.9066 78.2774 54.5822 78.1858 55.3159 78.2333C56.0453 78.279 56.8137 78.4834 57.6212 78.8466L58.403 79.1984L54.5544 87.7534L52.7344 86.9346L55.2713 81.2954C54.9362 81.1497 54.6037 81.0952 54.2739 81.1318C53.9441 81.1683 53.6461 81.2885 53.3797 81.4923C53.1111 81.6899 52.8989 81.9617 52.7432 82.3078C52.5856 82.6581 52.5234 83.0077 52.5565 83.3565C52.5854 83.7033 52.6979 84.0185 52.894 84.3019C53.0859 84.5834 53.3486 84.8044 53.6823 84.9647L55.5342 85.7979C55.9358 85.9785 56.3238 86.0581 56.6983 86.0364C57.0684 86.0129 57.4022 85.8934 57.6995 85.6778C57.9968 85.4623 58.2358 85.1537 58.4164 84.7521C58.5413 84.4744 58.6163 84.2051 58.6413 83.944C58.6662 83.683 58.6404 83.4377 58.564 83.2081C58.4875 82.9785 58.3585 82.7741 58.1772 82.5949L59.5549 79.7551C60.1462 80.1649 60.5898 80.6804 60.8857 81.3015C61.1792 81.9164 61.3114 82.6103 61.2822 83.3831C61.2488 84.1539 61.0389 84.9687 60.6526 85.8274Z" fill="black"/>
<path d="M65.5571 64.9103L63.6413 67.4185C63.4457 67.3029 63.2349 67.2471 63.0088 67.2512C62.7791 67.2525 62.5524 67.3133 62.3287 67.4338C62.1044 67.5477 61.8966 67.7232 61.7054 67.9601C61.4553 68.27 61.304 68.5843 61.2514 68.9031C61.2018 69.2182 61.2842 69.4592 61.4985 69.6262C61.6597 69.7623 61.8548 69.8114 62.0839 69.7736C62.316 69.7321 62.6112 69.564 62.9695 69.2692L64.582 67.8977C65.419 67.1887 66.1882 66.7801 66.8896 66.6718C67.5938 66.56 68.2537 66.7493 68.8691 67.2399C69.4421 67.7084 69.8051 68.2843 69.9581 68.9675C70.1139 69.6471 70.075 70.3742 69.8412 71.1487C69.6038 71.9203 69.1821 72.6815 68.5761 73.4325C67.6082 74.6319 66.5987 75.3794 65.5476 75.6748C64.4957 75.9638 63.5145 75.822 62.6039 75.2497L64.6697 72.5555C65.023 72.7443 65.3784 72.7813 65.7359 72.6665C66.0934 72.5517 66.4252 72.3047 66.7311 71.9256C67.0077 71.5829 67.169 71.2526 67.2149 70.9345C67.2609 70.6164 67.1797 70.3703 66.9712 70.196C66.7786 70.0467 66.5597 70.0084 66.3143 70.0813C66.0652 70.1512 65.7667 70.3346 65.4186 70.6317L63.9571 71.8721C63.1244 72.5907 62.3359 72.9897 61.5915 73.0692C60.8434 73.1458 60.1501 72.9234 59.5114 72.4019C58.947 71.9525 58.5883 71.4162 58.4351 70.7929C58.2783 70.1667 58.3192 69.4894 58.5578 68.761C58.7965 68.0326 59.2218 67.2893 59.8337 66.531C60.7516 65.3936 61.7141 64.6895 62.7213 64.4187C63.7247 64.1449 64.67 64.3088 65.5571 64.9103ZM55.5952 64.7901L57.7376 64.7311L57.3472 62.6191L59.152 60.3826L59.2231 60.4399L59.7666 64.7792L58.2176 66.6986L53.857 67.0894L53.7859 67.0321L55.5952 64.7901Z" fill="black"/>
<path d="M78.3253 64.9058C77.3427 65.4618 76.3851 65.748 75.4524 65.7644C74.5215 65.7745 73.6603 65.5271 72.8687 65.0223C72.0788 64.5111 71.4013 63.7561 70.8361 62.7572C70.287 61.7868 69.9988 60.8304 69.9714 59.8878C69.9417 58.9411 70.1612 58.0687 70.63 57.2706C71.0965 56.4684 71.8027 55.7997 72.7486 55.2644C73.4172 54.8861 74.0876 54.644 74.7598 54.5382C75.4319 54.4324 76.0851 54.4691 76.7195 54.6484C77.3538 54.8277 77.9527 55.1536 78.516 55.6261C79.0771 56.0944 79.5757 56.7139 80.0117 57.4845L80.4339 58.2306L72.2695 62.8504L71.2867 61.1136L76.6684 58.0683C76.4844 57.7526 76.2487 57.5119 75.9612 57.3462C75.6737 57.1806 75.3623 57.1011 75.027 57.1078C74.6934 57.1082 74.3615 57.2018 74.0313 57.3887C73.697 57.5778 73.44 57.8228 73.2603 58.1236C73.0784 58.4204 72.9826 58.741 72.973 59.0855C72.9611 59.426 73.0422 59.7595 73.2163 60.0863L74.2164 61.8537C74.4333 62.2369 74.699 62.5306 75.0137 62.7347C75.326 62.9348 75.6658 63.0358 76.033 63.038C76.4002 63.0401 76.7755 62.9327 77.1587 62.7159C77.4237 62.5659 77.6435 62.3931 77.8181 62.1974C77.9926 62.0018 78.117 61.7888 78.1912 61.5584C78.2654 61.328 78.2824 61.087 78.2422 60.8352L81.0331 59.3609C81.2673 60.0412 81.3199 60.7192 81.191 61.395C81.0638 62.0644 80.7599 62.702 80.2791 63.3078C79.796 63.9094 79.1448 64.4421 78.3253 64.9058Z" fill="black"/>
<path d="M87.6817 52.9093L89.6866 58.7292L86.4378 59.8483L82.9225 49.6436L86.0118 48.5794L86.6572 50.4529L86.7701 50.414C86.7809 49.7117 86.9976 49.0895 87.4204 48.5475C87.8416 48.0011 88.4286 47.5982 89.1816 47.3388C89.8991 47.0917 90.5771 47.039 91.2155 47.1807C91.8569 47.3165 92.4229 47.622 92.9136 48.0971C93.4071 48.5662 93.7837 49.1847 94.0432 49.9524L96.2838 56.4566L93.035 57.5757L91.0141 51.7094C90.8233 51.1409 90.5268 50.7476 90.1246 50.5294C89.7268 50.3097 89.2711 50.2883 88.7573 50.4653C88.4162 50.5828 88.141 50.7618 87.9316 51.0024C87.725 51.2371 87.5982 51.5161 87.551 51.8395C87.5083 52.1614 87.5519 52.518 87.6817 52.9093Z" fill="black"/>
<path d="M98.4831 45.2806L101.82 44.4603L104.504 55.3782C104.716 56.2425 104.708 56.9731 104.478 57.5698C104.253 58.1654 103.847 58.6535 103.261 59.0341C102.674 59.4147 101.944 59.7123 101.071 59.9271C100.952 59.9561 100.84 59.9813 100.735 60.0024C100.629 60.0236 100.514 60.047 100.39 60.0727L99.7678 57.5411C99.8519 57.5301 99.9264 57.519 99.9912 57.5079C100.056 57.4968 100.12 57.4834 100.184 57.4677C100.643 57.3548 100.941 57.1901 101.075 56.9736C101.212 56.7616 101.236 56.4805 101.15 56.1303L98.4831 45.2806ZM99.8478 43.6499C99.3793 43.765 98.9387 43.7094 98.526 43.4828C98.1122 43.2516 97.851 42.9154 97.7426 42.4742C97.6352 42.0375 97.7118 41.6231 97.9724 41.231C98.2319 40.8343 98.5959 40.5784 99.0645 40.4632C99.5376 40.3469 99.9787 40.4049 100.388 40.6371C100.801 40.8637 101.061 41.1954 101.168 41.6321C101.277 42.0733 101.201 42.4923 100.942 42.8889C100.686 43.2799 100.321 43.5336 99.8478 43.6499Z" fill="black"/>
<path d="M111.592 54.8758C110.904 54.8589 110.296 54.7292 109.767 54.4867C109.244 54.2396 108.833 53.8781 108.536 53.4022C108.243 52.9217 108.105 52.3256 108.123 51.6137C108.137 51.0143 108.255 50.5111 108.476 50.1041C108.697 49.6972 108.995 49.3694 109.372 49.1209C109.748 48.8724 110.179 48.6885 110.664 48.5692C111.15 48.4452 111.667 48.3665 112.217 48.3331C112.831 48.2919 113.327 48.2454 113.703 48.1937C114.079 48.1373 114.353 48.0527 114.525 47.9397C114.701 47.8222 114.792 47.6534 114.797 47.4333L114.798 47.3982C114.807 47.0376 114.689 46.7559 114.446 46.5531C114.203 46.3503 113.87 46.2438 113.449 46.2335C112.995 46.2223 112.627 46.3117 112.346 46.5017C112.065 46.6916 111.882 46.9589 111.799 47.3036L108.633 47.1137C108.743 46.4603 108.999 45.8808 109.4 45.3752C109.806 44.865 110.355 44.4707 111.046 44.1925C111.741 43.9096 112.572 43.78 113.536 43.8036C114.225 43.8204 114.857 43.9179 115.434 44.0961C116.011 44.2695 116.511 44.5161 116.934 44.8357C117.358 45.1507 117.681 45.5335 117.904 45.9841C118.132 46.4348 118.239 46.9459 118.225 47.5172L118.046 54.8511L114.814 54.7719L114.851 53.2686L114.767 53.2666C114.566 53.6272 114.312 53.9302 114.006 54.1758C113.705 54.4214 113.352 54.6026 112.946 54.7191C112.545 54.8358 112.093 54.8881 111.592 54.8758ZM112.708 52.6538C113.078 52.6629 113.412 52.5961 113.711 52.4535C114.015 52.311 114.258 52.1107 114.443 51.8528C114.627 51.5903 114.724 51.2834 114.732 50.9321L114.758 49.9065C114.658 49.9556 114.537 49.9995 114.396 50.0382C114.259 50.0771 114.108 50.1132 113.943 50.1466C113.779 50.1801 113.609 50.2087 113.435 50.2326C113.261 50.2565 113.094 50.2781 112.935 50.2977C112.61 50.3413 112.332 50.4141 112.1 50.5162C111.872 50.6184 111.696 50.7547 111.57 50.925C111.448 51.0907 111.385 51.2906 111.379 51.5248C111.371 51.8807 111.49 52.1554 111.739 52.3489C111.992 52.5426 112.315 52.6442 112.708 52.6538Z" fill="black"/>
<path d="M63.6028 139.913C64.181 140.888 64.4785 141.845 64.4953 142.782C64.5058 143.718 64.2647 144.588 63.772 145.393C63.273 146.195 62.548 146.878 61.597 147.442C60.6421 148.008 59.6948 148.317 58.7554 148.367C57.8095 148.416 56.9305 148.21 56.1182 147.75C55.2995 147.288 54.6011 146.569 54.0228 145.594C53.4446 144.619 53.1503 143.663 53.1399 142.727C53.123 141.79 53.3641 140.92 53.8632 140.117C54.3558 139.313 55.0796 138.628 56.0346 138.062C56.9855 137.498 57.9339 137.191 58.8798 137.142C59.8193 137.092 60.6983 137.298 61.517 137.76C62.3293 138.22 63.0245 138.938 63.6028 139.913ZM61.3617 141.218C61.1515 140.863 60.8647 140.627 60.5013 140.511C60.138 140.394 59.7247 140.386 59.2614 140.486C58.7957 140.583 58.309 140.781 57.8013 141.082C57.2856 141.388 56.8737 141.722 56.5657 142.085C56.2554 142.443 56.0643 142.809 55.9924 143.184C55.9206 143.559 55.9898 143.924 56.2001 144.278C56.4175 144.645 56.7103 144.891 57.0784 145.016C57.4441 145.136 57.8598 145.149 58.3255 145.052C58.7888 144.952 59.2783 144.749 59.794 144.443C60.3018 144.142 60.7108 143.812 61.0211 143.454C61.3291 143.091 61.5178 142.721 61.5873 142.342C61.6543 141.959 61.5792 141.584 61.3617 141.218Z" fill="black"/>
<path d="M58.3667 129.885C58.586 130.65 58.5871 131.403 58.3702 132.142C58.1532 132.882 57.7019 133.552 57.0164 134.153C56.3309 134.754 55.4004 135.222 54.225 135.559C53.0046 135.909 51.9449 136.003 51.0458 135.841C50.1468 135.68 49.4184 135.34 48.8608 134.823C48.3019 134.3 47.9186 133.677 47.7109 132.952C47.5548 132.407 47.5159 131.914 47.5941 131.472C47.6678 131.032 47.8148 130.644 48.0353 130.308C48.2558 129.972 48.505 129.693 48.7828 129.472L48.7634 129.405L43.5282 130.905L42.5819 127.601L56.4164 123.638L57.353 126.908L55.671 127.39L55.7 127.491C56.0598 127.539 56.416 127.651 56.7688 127.828C57.1215 128.005 57.4389 128.262 57.721 128.6C58.0018 128.934 58.217 129.362 58.3667 129.885ZM55.464 129.474C55.3492 129.073 55.1385 128.763 54.8321 128.544C54.5211 128.326 54.1366 128.2 53.6784 128.165C53.2202 128.131 52.7119 128.193 52.1535 128.353C51.5861 128.516 51.1194 128.732 50.7534 129.003C50.3862 129.269 50.1335 129.578 49.9954 129.929C49.856 130.276 49.8437 130.65 49.9585 131.051C50.0759 131.461 50.2879 131.775 50.5943 131.994C50.9008 132.214 51.2802 132.339 51.7326 132.37C52.1836 132.397 52.6884 132.33 53.2468 132.17C53.8053 132.01 54.2703 131.796 54.6421 131.529C55.0138 131.262 55.2745 130.956 55.4242 130.611C55.5681 130.262 55.5814 129.883 55.464 129.474Z" fill="black"/>
<path d="M162.125 99.2189L176.89 97.7222L177.233 101.106L175.394 101.292L175.405 101.397C175.745 101.504 176.08 101.67 176.409 101.896C176.738 102.126 177.019 102.432 177.25 102.813C177.487 103.199 177.634 103.674 177.691 104.238C177.767 104.983 177.642 105.7 177.316 106.387C176.991 107.08 176.441 107.667 175.666 108.151C174.891 108.634 173.872 108.94 172.609 109.068C171.392 109.192 170.354 109.101 169.495 108.798C168.636 108.499 167.968 108.044 167.492 107.433C167.016 106.827 166.738 106.127 166.657 105.335C166.603 104.794 166.644 104.317 166.781 103.903C166.918 103.489 167.117 103.132 167.378 102.832C167.64 102.537 167.93 102.301 168.246 102.123L168.239 102.053L162.471 102.638L162.125 99.2189ZM171.86 101.615C171.282 101.674 170.787 101.802 170.373 101.999C169.961 102.201 169.65 102.461 169.442 102.778C169.24 103.1 169.159 103.469 169.201 103.883C169.244 104.303 169.396 104.648 169.659 104.918C169.927 105.187 170.282 105.375 170.726 105.48C171.171 105.591 171.682 105.617 172.26 105.558C172.838 105.499 173.331 105.372 173.739 105.175C174.148 104.983 174.455 104.728 174.658 104.411C174.862 104.098 174.942 103.73 174.899 103.306C174.856 102.886 174.706 102.541 174.448 102.271C174.19 102.001 173.841 101.808 173.4 101.692C172.961 101.581 172.447 101.556 171.86 101.615Z" fill="black"/>
<path d="M165.849 113.722L176.593 114.747L176.277 118.069L174.318 117.883L174.307 117.995C174.997 118.258 175.494 118.628 175.797 119.104C176.104 119.58 176.23 120.112 176.174 120.7C176.159 120.858 176.132 121.02 176.092 121.186C176.058 121.352 176.012 121.505 175.957 121.646L172.984 121.363C173.055 121.205 173.12 120.994 173.178 120.732C173.236 120.474 173.274 120.242 173.294 120.037C173.332 119.631 173.276 119.256 173.126 118.913C172.979 118.574 172.754 118.296 172.45 118.079C172.15 117.867 171.786 117.74 171.357 117.699L165.523 117.143L165.849 113.722Z" fill="black"/>
<path d="M163.041 127.991C163.436 126.929 163.992 126.096 164.711 125.494C165.432 124.897 166.261 124.538 167.196 124.415C168.134 124.299 169.121 124.434 170.157 124.819C171.198 125.205 172.033 125.748 172.663 126.447C173.295 127.152 173.688 127.965 173.84 128.886C173.995 129.813 173.876 130.808 173.481 131.871C173.086 132.934 172.528 133.763 171.806 134.36C171.088 134.962 170.259 135.322 169.322 135.438C168.387 135.56 167.399 135.428 166.358 135.041C165.322 134.656 164.487 134.111 163.855 133.406C163.225 132.708 162.832 131.894 162.677 130.967C162.525 130.046 162.646 129.054 163.041 127.991ZM165.464 128.914C165.32 129.301 165.317 129.672 165.455 130.028C165.592 130.384 165.846 130.711 166.215 131.008C166.583 131.309 167.043 131.563 167.597 131.768C168.159 131.977 168.678 132.088 169.153 132.099C169.627 132.116 170.032 132.034 170.369 131.854C170.705 131.674 170.945 131.391 171.089 131.005C171.237 130.605 171.245 130.223 171.11 129.858C170.974 129.498 170.722 129.167 170.355 128.865C169.985 128.568 169.52 128.315 168.958 128.106C168.404 127.901 167.891 127.79 167.417 127.774C166.942 127.762 166.535 127.848 166.197 128.032C165.857 128.221 165.612 128.515 165.464 128.914Z" fill="black"/>
<path d="M159.077 137.038L171.38 144.504L169.597 147.441L164.941 144.616L164.905 144.676C165.112 144.966 165.279 145.301 165.406 145.679C165.53 146.061 165.57 146.474 165.525 146.918C165.482 147.369 165.313 147.836 165.019 148.321C164.63 148.962 164.099 149.458 163.425 149.811C162.748 150.167 161.955 150.305 161.045 150.224C160.135 150.143 159.137 149.774 158.052 149.115C157.007 148.481 156.233 147.784 155.73 147.023C155.224 146.267 154.965 145.502 154.953 144.727C154.938 143.957 155.138 143.231 155.551 142.55C155.833 142.086 156.153 141.729 156.512 141.481C156.871 141.233 157.245 141.069 157.634 140.987C158.021 140.909 158.394 140.895 158.754 140.943L158.808 140.853L157.313 139.945L159.077 137.038ZM161.944 142.715C161.448 142.414 160.975 142.217 160.526 142.126C160.075 142.038 159.671 142.059 159.314 142.187C158.958 142.322 158.672 142.568 158.456 142.924C158.237 143.284 158.151 143.652 158.198 144.025C158.249 144.402 158.42 144.766 158.711 145.117C158.999 145.473 159.392 145.802 159.888 146.103C160.385 146.404 160.855 146.6 161.3 146.689C161.742 146.782 162.14 146.763 162.493 146.632C162.844 146.505 163.13 146.26 163.352 145.895C163.57 145.535 163.658 145.169 163.615 144.797C163.572 144.426 163.409 144.062 163.128 143.704C162.843 143.351 162.449 143.021 161.944 142.715Z" fill="black"/>
<path d="M157.606 161.959L147.738 151.485L150.238 149.129L160.107 159.603L157.606 161.959Z" fill="black"/>
<path d="M139.793 156.957C140.769 156.39 141.724 156.093 142.656 156.066C143.587 156.046 144.451 156.284 145.248 156.78C146.043 157.282 146.729 158.03 147.305 159.022C147.865 159.987 148.164 160.94 148.202 161.882C148.242 162.828 148.032 163.703 147.572 164.506C147.114 165.314 146.415 165.99 145.476 166.536C144.811 166.922 144.143 167.171 143.473 167.284C142.802 167.398 142.148 167.368 141.512 167.196C140.875 167.023 140.273 166.704 139.704 166.238C139.138 165.776 138.633 165.162 138.188 164.396L137.758 163.655L145.871 158.945L146.873 160.671L141.525 163.775C141.712 164.089 141.951 164.327 142.24 164.49C142.529 164.652 142.842 164.728 143.177 164.718C143.51 164.714 143.841 164.616 144.169 164.426C144.502 164.233 144.756 163.985 144.932 163.682C145.111 163.384 145.203 163.062 145.209 162.717C145.217 162.377 145.132 162.044 144.955 161.719L143.935 159.963C143.714 159.582 143.445 159.292 143.128 159.091C142.814 158.894 142.473 158.797 142.105 158.799C141.738 158.801 141.364 158.912 140.983 159.134C140.72 159.286 140.502 159.462 140.33 159.659C140.157 159.857 140.035 160.071 139.964 160.302C139.892 160.534 139.878 160.775 139.921 161.026L137.146 162.531C136.905 161.853 136.844 161.176 136.966 160.499C137.086 159.828 137.383 159.187 137.857 158.576C138.333 157.969 138.978 157.429 139.793 156.957Z" fill="black"/>
<path d="M131.508 161.656L134.493 172.028L131.353 172.932L130.805 171.027L130.69 171.06C130.655 171.753 130.434 172.355 130.026 172.868C129.617 173.38 129.058 173.739 128.346 173.943C127.626 174.151 126.956 174.143 126.337 173.922C125.717 173.701 125.248 173.299 124.93 172.718L124.822 172.749C124.806 173.422 124.57 174.024 124.113 174.555C123.658 175.09 123.048 175.468 122.282 175.688C121.301 175.971 120.413 175.885 119.62 175.431C118.827 174.981 118.274 174.21 117.959 173.116L115.95 166.133L119.252 165.183L121.044 171.409C121.193 171.927 121.439 172.283 121.782 172.476C122.127 172.674 122.511 172.713 122.934 172.591C123.388 172.46 123.704 172.208 123.879 171.836C124.052 171.47 124.066 171.039 123.924 170.544L122.142 164.351L125.316 163.438L127.117 169.698C127.256 170.179 127.496 170.522 127.837 170.726C128.179 170.93 128.563 170.971 128.991 170.848C129.279 170.765 129.513 170.622 129.694 170.419C129.876 170.22 129.993 169.977 130.047 169.688C130.096 169.401 130.071 169.087 129.972 168.744L128.206 162.606L131.508 161.656Z" fill="black"/>
<path d="M107.233 165.412C107.921 165.451 108.525 165.6 109.045 165.859C109.56 166.123 109.959 166.497 110.241 166.983C110.519 167.472 110.637 168.072 110.597 168.783C110.563 169.382 110.43 169.881 110.196 170.281C109.962 170.68 109.653 170.999 109.269 171.235C108.885 171.471 108.449 171.641 107.96 171.745C107.47 171.853 106.95 171.916 106.401 171.931C105.785 171.953 105.288 171.984 104.91 172.023C104.533 172.068 104.256 172.143 104.081 172.251C103.901 172.363 103.805 172.529 103.793 172.748L103.791 172.783C103.77 173.144 103.879 173.429 104.115 173.639C104.352 173.85 104.681 173.967 105.102 173.991C105.556 174.016 105.926 173.939 106.213 173.758C106.5 173.577 106.691 173.316 106.785 172.974L109.943 173.265C109.812 173.914 109.538 174.485 109.121 174.978C108.699 175.475 108.138 175.851 107.439 176.107C106.734 176.368 105.9 176.471 104.937 176.416C104.249 176.378 103.62 176.26 103.049 176.064C102.478 175.872 101.986 175.609 101.574 175.276C101.16 174.948 100.85 174.555 100.641 174.098C100.427 173.64 100.337 173.126 100.369 172.555L100.783 165.231L104.01 165.413L103.925 166.914L104.009 166.919C104.222 166.565 104.485 166.27 104.798 166.035C105.107 165.799 105.466 165.629 105.876 165.525C106.28 165.422 106.733 165.384 107.233 165.412ZM106.047 167.597C105.678 167.576 105.341 167.632 105.038 167.765C104.731 167.898 104.48 168.091 104.288 168.342C104.095 168.599 103.989 168.903 103.969 169.253L103.911 170.278C104.012 170.232 104.134 170.192 104.277 170.158C104.415 170.123 104.567 170.092 104.733 170.064C104.898 170.036 105.069 170.012 105.243 169.994C105.418 169.976 105.585 169.959 105.746 169.945C106.071 169.912 106.352 169.848 106.587 169.753C106.818 169.658 106.999 169.528 107.13 169.362C107.256 169.2 107.326 169.002 107.339 168.768C107.36 168.413 107.249 168.134 107.007 167.933C106.76 167.731 106.44 167.619 106.047 167.597Z" fill="black"/>
<path d="M152.152 73.6249C151.714 72.9593 151.489 72.2412 151.476 71.4707C151.463 70.7001 151.695 69.926 152.17 69.1483C152.646 68.3706 153.395 67.6461 154.416 66.9748C155.477 66.2777 156.461 65.8724 157.367 65.759C158.274 65.6456 159.07 65.7529 159.757 66.0811C160.446 66.4131 160.997 66.8943 161.411 67.5247C161.723 67.9984 161.907 68.4577 161.963 68.9024C162.024 69.3446 161.999 69.7589 161.889 70.1453C161.778 70.5318 161.623 70.8718 161.424 71.1654L161.462 71.2241L166.014 68.2339L167.901 71.1057L155.873 79.0076L154.006 76.1651L155.468 75.2044L155.41 75.1163C155.052 75.1776 154.679 75.1764 154.289 75.1127C153.9 75.049 153.52 74.8977 153.15 74.6587C152.783 74.4237 152.45 74.0791 152.152 73.6249ZM155.045 73.1532C155.274 73.5017 155.568 73.7349 155.925 73.853C156.287 73.9685 156.692 73.9744 157.139 73.8709C157.587 73.7674 158.054 73.5561 158.539 73.2372C159.032 72.9131 159.414 72.5674 159.682 72.2002C159.954 71.837 160.103 71.467 160.13 71.0904C160.16 70.7177 160.06 70.3571 159.832 70.0087C159.597 69.6524 159.302 69.4152 158.944 69.2972C158.586 69.1792 158.186 69.1726 157.745 69.2774C157.307 69.3862 156.845 69.6001 156.359 69.919C155.874 70.238 155.493 70.5804 155.218 70.9463C154.943 71.3121 154.785 71.682 154.745 72.0559C154.711 72.4312 154.811 72.797 155.045 73.1532Z" fill="black"/>
<path d="M160.431 86.2621C159.987 85.2187 159.82 84.2312 159.928 83.2996C160.042 82.3706 160.397 81.5404 160.992 80.809C161.594 80.0802 162.403 79.4997 163.421 79.0674C164.443 78.6333 165.423 78.4537 166.36 78.5287C167.304 78.6061 168.148 78.9271 168.892 79.4917C169.642 80.0588 170.238 80.864 170.682 81.9074C171.125 82.9508 171.289 83.9371 171.175 84.8662C171.067 85.7977 170.712 86.6279 170.111 87.3568C169.515 88.0881 168.707 88.6708 167.685 89.1049C166.667 89.5372 165.687 89.7146 164.743 89.6371C163.805 89.5622 162.961 89.2412 162.211 88.6741C161.467 88.1095 160.874 87.3055 160.431 86.2621ZM162.825 85.2677C162.987 85.6471 163.239 85.9189 163.584 86.083C163.929 86.2471 164.337 86.3102 164.81 86.2724C165.284 86.2388 165.793 86.1066 166.336 85.8759C166.888 85.6414 167.341 85.3651 167.694 85.047C168.049 84.7332 168.288 84.3953 168.409 84.0334C168.53 83.6715 168.51 83.3008 168.349 82.9214C168.182 82.529 167.924 82.2465 167.576 82.0738C167.23 81.9054 166.819 81.8379 166.345 81.8715C165.873 81.9093 165.36 82.0455 164.808 82.2799C164.265 82.5107 163.816 82.783 163.461 83.0968C163.107 83.415 162.871 83.7571 162.752 84.1234C162.634 84.4939 162.659 84.8754 162.825 85.2677Z" fill="black"/>
<defs>
<clipPath id="clip0_821_32972">
<rect width="57.7284" height="57.7284" fill="white" transform="translate(101.516 67.8145) rotate(29.3922)"/>
</clipPath>
</defs>
</svg>
