<svg width="197" height="72" viewBox="0 0 197 72" fill="none" xmlns="http://www.w3.org/2000/svg">
<path d="M95.4267 4.62207V9.7627H101.337V9.67285H101.339V4.62305H120.569V8.71582L120.642 8.70117V9.71777H121.072V14.3398H125.693V14.7666H130.236V38.6094H125.693V43.6611H120.645V47.2246L122.131 48.7109H120.645V48.7471H115.633V53.7607H110.582V58.7891H105.53V63.6816H91.2353V58.7891H86.1835V53.7607H81.1318V48.7471H76.1201V43.6943H75.413L75.4179 43.6611H71.0742V38.6104H66.5312V14.7676H71.0732V14.7656H71.0742V9.71582H76.1982V4.62207H95.4267Z" fill="black" stroke="#7D3FE7" stroke-width="9.24388"/>
<path d="M33.5193 4.62207L33.5183 9.24512V9.7627H39.4285V9.67285H39.4294V4.62305H58.6589V8.71582L58.7312 8.70117V9.71777H63.7839V14.7666H68.3279V38.6094H63.7859V43.6611H58.7371V44.9648L64.3777 48.7109H58.7371V48.7471H53.7253V53.7607H48.6746V58.7891H43.6228V63.6816H29.3269V58.7891H24.2751V53.7607H19.2234V48.7471H14.2117V43.6943H13.5037L13.5085 43.6611H9.16479V38.6104H4.62183V14.7676H9.16382V14.7656H9.16479V9.71582H14.2888V4.62207H33.5193Z" fill="black" stroke="#7D3FE7" stroke-width="9.24388"/>
<path d="M157.329 4.62207V9.7627H163.208V4.71484H182.625V9.75879H187.656V19.3506H192.151V38.6523H187.623V43.7236H182.547V48.748H177.535V53.7617H172.484V58.79H167.433V63.6826H153.137V58.79H149.573L148.085 60.2783V53.7617H143.034V48.748H138.022V43.6953H137.134L137.14 43.6621H132.976V38.6104H128.433V14.7676H132.975V14.7656H132.976V9.71582H138.101V4.62207H157.329ZM172.485 24.0586H167.434V39.4668H168.252V34.4551H173.239V29.3408H178.34V24.085H173.33V19.041H172.485V24.0586Z" fill="black" stroke="#7D3FE7" stroke-width="9.24388"/>
</svg>
