<svg width="35" height="35" viewBox="0 0 35 35" fill="none" xmlns="http://www.w3.org/2000/svg">
<path d="M17.1098 0H17.0321C7.62553 0 0 7.62777 0 17.0371V17.1149C0 26.5242 7.62553 34.152 17.0321 34.152H17.1098C26.5164 34.152 34.1419 26.5242 34.1419 17.1149V17.0371C34.1419 7.62777 26.5164 0 17.1098 0Z" fill="#7D3FE7"/>
<path d="M25.3237 12.3552V15.5798C24.7603 15.5247 24.0283 15.3967 23.2185 15.1C22.1611 14.7123 21.374 14.1823 20.8585 13.7719V20.2892L20.8453 20.2689C20.8537 20.3981 20.8585 20.5297 20.8585 20.6626C20.8585 23.8991 18.2257 26.5338 14.9889 26.5338C11.7521 26.5338 9.11938 23.8991 9.11938 20.6626C9.11938 17.426 11.7521 14.7901 14.9889 14.7901C15.3059 14.7901 15.6169 14.8152 15.9207 14.8643V18.0422C15.6289 17.9381 15.3155 17.8819 14.9889 17.8819C13.4567 17.8819 12.2091 19.1286 12.2091 20.6626C12.2091 22.1965 13.4567 23.4432 14.9889 23.4432C16.5212 23.4432 17.7688 22.1953 17.7688 20.6626C17.7688 20.6051 17.7676 20.5477 17.764 20.4903V7.8252H20.9853C20.9972 8.098 21.008 8.3732 21.02 8.64601C21.0415 9.18324 21.2329 9.69893 21.5666 10.1213C21.9577 10.6178 22.5355 11.1946 23.3465 11.6552C24.106 12.0848 24.819 12.2702 25.3237 12.3576V12.3552Z" fill="white"/>
</svg>
